<svg xmlns="http://www.w3.org/2000/svg" xmlns:xlink="http://www.w3.org/1999/xlink" viewBox="0 0 500 500" id="ai-cloud-chip">
  <defs>
    <linearGradient id="a" x1="260.3" x2="297.24" y1="457.42" y2="488.42" gradientUnits="userSpaceOnUse">
      <stop offset="0" stop-color="#ffccba"></stop>
      <stop offset=".08" stop-color="#ffccba" stop-opacity=".88"></stop>
      <stop offset=".28" stop-color="#ffccba" stop-opacity=".62"></stop>
      <stop offset=".46" stop-color="#ffccba" stop-opacity=".4"></stop>
      <stop offset=".63" stop-color="#ffccba" stop-opacity=".22"></stop>
      <stop offset=".78" stop-color="#ffccba" stop-opacity=".1"></stop>
      <stop offset=".91" stop-color="#ffccba" stop-opacity=".03"></stop>
      <stop offset="1" stop-color="#ffccba" stop-opacity="0"></stop>
    </linearGradient>
    <linearGradient xlink:href="#a" id="c" x1="276.98" x2="313.92" y1="447.99" y2="478.98"></linearGradient>
    <linearGradient xlink:href="#a" id="e" x1="293.65" x2="330.59" y1="438.74" y2="469.73"></linearGradient>
    <linearGradient id="g" x1="90.52" x2="114.54" y1="420.29" y2="378.68" gradientUnits="userSpaceOnUse">
      <stop offset="0" stop-color="#ffccba" stop-opacity="0"></stop>
      <stop offset=".09" stop-color="#ffccba" stop-opacity=".03"></stop>
      <stop offset=".22" stop-color="#ffccba" stop-opacity=".1"></stop>
      <stop offset=".37" stop-color="#ffccba" stop-opacity=".22"></stop>
      <stop offset=".54" stop-color="#ffccba" stop-opacity=".4"></stop>
      <stop offset=".72" stop-color="#ffccba" stop-opacity=".62"></stop>
      <stop offset=".92" stop-color="#ffccba" stop-opacity=".88"></stop>
      <stop offset="1" stop-color="#ffccba"></stop>
    </linearGradient>
    <filter id="b" filterUnits="userSpaceOnUse">
      <feOffset></feOffset>
      <feGaussianBlur result="blur" stdDeviation="5"></feGaussianBlur>
      <feFlood flood-color="#ffccba" flood-opacity=".3"></feFlood>
      <feComposite in2="blur" operator="in"></feComposite>
      <feComposite in="SourceGraphic"></feComposite>
    </filter>
    <filter id="d" filterUnits="userSpaceOnUse">
      <feOffset></feOffset>
      <feGaussianBlur result="blur-2" stdDeviation="5"></feGaussianBlur>
      <feFlood flood-color="#ffccba" flood-opacity=".3"></feFlood>
      <feComposite in2="blur-2" operator="in"></feComposite>
      <feComposite in="SourceGraphic"></feComposite>
    </filter>
    <filter id="f" filterUnits="userSpaceOnUse">
      <feOffset></feOffset>
      <feGaussianBlur result="blur-3" stdDeviation="5"></feGaussianBlur>
      <feFlood flood-color="#ffccba" flood-opacity=".3"></feFlood>
      <feComposite in2="blur-3" operator="in"></feComposite>
      <feComposite in="SourceGraphic"></feComposite>
    </filter>
    <filter id="h" filterUnits="userSpaceOnUse">
      <feOffset></feOffset>
      <feGaussianBlur result="blur-4" stdDeviation="5"></feGaussianBlur>
      <feFlood flood-color="#ffccba" flood-opacity=".3"></feFlood>
      <feComposite in2="blur-4" operator="in"></feComposite>
      <feComposite in="SourceGraphic"></feComposite>
    </filter>
  </defs>
  <g>
    <g>
      <polygon fill="#0e7878" points="440.92 312.5 250.62 423.09 55.45 314.62 249.38 201.91 440.92 312.5"></polygon>
    </g>
    <g>
      <path fill="#30545b" d="M247.55,184.07l-.27,32.46c68.57,39.59,139.15,80.18,207.73,119.78l.09-33.61c-68.58-39.59-138.98-79.04-207.55-118.63Z"></path>
      <path fill="#1a4e52" d="M44.32,302.48l.57,33.83c68.13-39.59,136.26-79.19,204.39-118.78l.27-34.46c-68.13,39.59-137.09,79.82-205.23,119.41Z"></path>
    </g>
    <g>
      <g>
        <g>
          <g style="isolation:isolate">
            <polygon fill="#56a4a7" points="170.48 299.54 170.41 303.62 162.75 298.96 162.81 294.89 170.48 299.54"></polygon>
            <polygon fill="#5aabae" points="166.27 292.91 173.93 297.56 170.37 299.54 162.68 294.89 166.27 292.91"></polygon>
          </g>
          <g style="isolation:isolate">
            <polygon fill="#55a4a5" points="160.77 300.86 160.71 304.94 132.05 285.35 132.09 281.27 160.77 300.86"></polygon>
            <polygon fill="#58abad" points="135.7 279.29 164.36 298.88 160.77 300.86 132.09 281.27 135.7 279.29"></polygon>
          </g>
        </g>
        <g>
          <g style="isolation:isolate">
            <polygon fill="#56a4a7" points="186.9 290.3 186.84 294.38 179.17 289.72 179.24 285.65 186.9 290.3"></polygon>
            <polygon fill="#5aabae" points="182.7 283.67 190.36 288.32 186.8 290.3 179.11 285.65 182.7 283.67"></polygon>
          </g>
          <g style="isolation:isolate">
            <polygon fill="#55a4a5" points="179.01 293.65 178.94 297.73 145.31 277.95 145.35 273.88 179.01 293.65"></polygon>
            <polygon fill="#58abad" points="148.96 271.9 182.59 291.68 179.01 293.65 145.35 273.88 148.96 271.9"></polygon>
          </g>
        </g>
        <g>
          <g style="isolation:isolate">
            <polygon fill="#56a4a7" points="201.89 281.34 201.82 285.41 194.16 280.76 194.23 276.68 201.89 281.34"></polygon>
            <polygon fill="#5aabae" points="197.68 274.7 205.35 279.35 201.78 281.33 194.09 276.68 197.68 274.7"></polygon>
          </g>
          <g style="isolation:isolate">
            <polygon fill="#55a4a5" points="191.09 282.86 191.02 286.93 160.27 269.14 160.31 265.07 191.09 282.86"></polygon>
            <polygon fill="#58abad" points="163.92 263.09 194.67 280.88 191.09 282.86 160.31 265.07 163.92 263.09"></polygon>
          </g>
        </g>
        <g>
          <g style="isolation:isolate">
            <polygon fill="#56a4a7" points="216.93 272.44 216.86 276.52 209.2 271.86 209.27 267.79 216.93 272.44"></polygon>
            <polygon fill="#5aabae" points="212.72 265.81 220.39 270.46 216.82 272.44 209.14 267.79 212.72 265.81"></polygon>
          </g>
          <g style="isolation:isolate">
            <polygon fill="#55a4a5" points="210.09 276.37 210.02 280.45 175.28 260.35 175.33 256.28 210.09 276.37"></polygon>
            <polygon fill="#58abad" points="178.93 254.3 213.67 274.4 210.09 276.37 175.33 256.28 178.93 254.3"></polygon>
          </g>
        </g>
        <g>
          <g style="isolation:isolate">
            <polygon fill="#56a4a7" points="231.89 264.02 231.82 268.09 224.16 263.44 224.23 259.36 231.89 264.02"></polygon>
            <polygon fill="#5aabae" points="227.68 257.38 235.34 262.04 231.78 264.02 224.09 259.36 227.68 257.38"></polygon>
          </g>
          <g style="isolation:isolate">
            <polygon fill="#55a4a5" points="224.2 266.87 224.13 270.95 190.71 251.34 190.76 247.27 224.2 266.87"></polygon>
            <polygon fill="#58abad" points="194.36 245.29 227.78 264.9 224.2 266.87 190.76 247.27 194.36 245.29"></polygon>
          </g>
        </g>
        <g>
          <g style="isolation:isolate">
            <polygon fill="#55a4a5" points="237.57 257.33 237.5 261.4 205.35 242.88 205.39 238.81 237.57 257.33"></polygon>
            <polygon fill="#58abad" points="209 236.83 241.15 255.35 237.57 257.33 205.39 238.81 209 236.83"></polygon>
          </g>
          <g style="isolation:isolate">
            <polygon fill="#56a4a7" points="246.8 255.23 246.73 259.31 239.07 254.65 239.14 250.58 246.8 255.23"></polygon>
            <polygon fill="#5aabae" points="242.59 248.6 250.26 253.25 246.69 255.23 239.01 250.58 242.59 248.6"></polygon>
          </g>
        </g>
      </g>
      <g>
        <g>
          <g style="isolation:isolate">
            <polygon fill="#56a4a7" points="337.5 304.66 337.56 308.73 345.23 304.08 345.16 300 337.5 304.66"></polygon>
            <polygon fill="#5aabae" points="341.7 298.02 334.04 302.68 337.6 304.66 345.29 300 341.7 298.02"></polygon>
          </g>
          <g style="isolation:isolate">
            <polygon fill="#55a4a5" points="347.2 305.98 347.27 310.05 375.93 290.46 375.88 286.39 347.2 305.98"></polygon>
            <polygon fill="#58abad" points="372.28 284.41 343.62 304 347.2 305.98 375.88 286.39 372.28 284.41"></polygon>
          </g>
        </g>
        <g>
          <g style="isolation:isolate">
            <polygon fill="#56a4a7" points="321.07 295.42 321.14 299.49 328.8 294.84 328.73 290.76 321.07 295.42"></polygon>
            <polygon fill="#5aabae" points="325.27 288.78 317.61 293.44 321.18 295.42 328.86 290.76 325.27 288.78"></polygon>
          </g>
          <g style="isolation:isolate">
            <polygon fill="#55a4a5" points="328.96 298.77 329.03 302.85 362.66 283.07 362.62 279 328.96 298.77"></polygon>
            <polygon fill="#58abad" points="359.01 277.02 325.38 296.79 328.96 298.77 362.62 279 359.01 277.02"></polygon>
          </g>
        </g>
        <g>
          <g style="isolation:isolate">
            <polygon fill="#56a4a7" points="306.08 286.45 306.15 290.53 313.81 285.87 313.75 281.8 306.08 286.45"></polygon>
            <polygon fill="#5aabae" points="310.29 279.82 302.63 284.47 306.19 286.45 313.88 281.8 310.29 279.82"></polygon>
          </g>
          <g style="isolation:isolate">
            <polygon fill="#55a4a5" points="316.89 287.97 316.95 292.05 347.71 274.26 347.66 270.19 316.89 287.97"></polygon>
            <polygon fill="#58abad" points="344.06 268.21 313.3 286 316.89 287.97 347.66 270.19 344.06 268.21"></polygon>
          </g>
        </g>
        <g>
          <g style="isolation:isolate">
            <polygon fill="#56a4a7" points="291.04 277.56 291.11 281.63 298.77 276.98 298.71 272.9 291.04 277.56"></polygon>
            <polygon fill="#5aabae" points="295.25 270.92 287.59 275.58 291.15 277.56 298.84 272.9 295.25 270.92"></polygon>
          </g>
          <g style="isolation:isolate">
            <polygon fill="#55a4a5" points="297.89 281.49 297.96 285.56 332.69 265.47 332.65 261.4 297.89 281.49"></polygon>
            <polygon fill="#58abad" points="329.04 259.42 294.31 279.51 297.89 281.49 332.65 261.4 329.04 259.42"></polygon>
          </g>
        </g>
        <g>
          <g style="isolation:isolate">
            <polygon fill="#56a4a7" points="276.09 269.13 276.15 273.21 283.82 268.55 283.75 264.48 276.09 269.13"></polygon>
            <polygon fill="#5aabae" points="280.29 262.5 272.63 267.15 276.19 269.13 283.88 264.48 280.29 262.5"></polygon>
          </g>
          <g style="isolation:isolate">
            <polygon fill="#55a4a5" points="283.78 271.99 283.84 276.06 317.26 256.45 317.22 252.38 283.78 271.99"></polygon>
            <polygon fill="#58abad" points="313.61 250.4 280.19 270.01 283.78 271.99 317.22 252.38 313.61 250.4"></polygon>
          </g>
        </g>
        <g>
          <g style="isolation:isolate">
            <polygon fill="#55a4a5" points="270.4 262.44 270.47 266.52 302.63 248 302.58 243.93 270.4 262.44"></polygon>
            <polygon fill="#58abad" points="298.98 241.95 266.82 260.47 270.4 262.44 302.58 243.93 298.98 241.95"></polygon>
          </g>
          <g style="isolation:isolate">
            <polygon fill="#56a4a7" points="261.17 260.35 261.24 264.42 268.9 259.77 268.84 255.69 261.17 260.35"></polygon>
            <polygon fill="#5aabae" points="265.38 253.71 257.72 258.37 261.28 260.35 268.97 255.69 265.38 253.71"></polygon>
          </g>
        </g>
      </g>
    </g>
    <g>
      <g style="isolation:isolate">
        <polygon fill="#6ac0c4" points="260.21 357.5 260.18 377.73 348.98 326.12 349.02 305.89 260.21 357.5"></polygon>
        <path fill="#66b8bb" d="M260.18,377.73l.03-20.23c-7.74,0-12.07,0-19.8,0l-.03,20.23h19.8Z"></path>
        <polygon fill="#5fb1b3" points="151.02 305.89 150.99 326.12 240.37 377.73 240.41 357.5 151.02 305.89"></polygon>
        <path fill="#73ccce" d="M249.7,248.55l-98.67,57.34,89.39,51.61c7.73,0,12.07,0,19.8,0l88.8-51.61-99.32-57.34Z"></path>
      </g>
    </g>
    <g>
      <g>
        <g>
          <g style="isolation:isolate">
            <polygon fill="#56a4a7" points="215.9 359.25 215.89 363.32 223.64 358.82 223.65 354.74 215.9 359.25"></polygon>
            <polygon fill="#5aabae" points="220.24 352.69 212.49 357.2 216.01 359.25 223.79 354.74 220.24 352.69"></polygon>
          </g>
          <g style="isolation:isolate">
            <polygon fill="#55a4a5" points="191.98 391.87 191.97 395.94 216.03 381.96 216.06 377.89 191.98 391.87"></polygon>
            <polygon fill="#58abad" points="212.5 375.84 188.44 389.82 191.98 391.87 216.06 377.89 212.5 375.84"></polygon>
          </g>
          <g style="isolation:isolate">
            <polygon fill="#498f90" points="212.46 361.3 208.94 359.25 208.99 377.89 212.5 379.96 212.46 361.3"></polygon>
            <polygon fill="#5aabae" points="212.49 357.2 208.94 359.25 212.46 361.3 216.01 359.25 212.49 357.2"></polygon>
            <polygon fill="#55a4a5" points="216.01 359.25 212.46 361.3 212.5 379.96 216.06 377.89 216.01 359.25"></polygon>
          </g>
        </g>
        <g>
          <g style="isolation:isolate">
            <polygon fill="#56a4a7" points="202.46 351.4 202.45 355.47 210.2 350.97 210.21 346.89 202.46 351.4"></polygon>
            <polygon fill="#5aabae" points="206.79 344.85 199.04 349.35 202.56 351.4 210.34 346.89 206.79 344.85"></polygon>
          </g>
          <g style="isolation:isolate">
            <polygon fill="#55a4a5" points="178.53 384.02 178.52 388.09 202.58 374.11 202.62 370.04 178.53 384.02"></polygon>
            <polygon fill="#58abad" points="199.05 367.99 174.99 381.97 178.53 384.02 202.62 370.04 199.05 367.99"></polygon>
          </g>
          <g style="isolation:isolate">
            <polygon fill="#498f90" points="199.01 353.45 195.49 351.4 195.54 370.04 199.05 372.11 199.01 353.45"></polygon>
            <polygon fill="#5aabae" points="199.04 349.35 195.49 351.4 199.01 353.45 202.56 351.4 199.04 349.35"></polygon>
            <polygon fill="#55a4a5" points="202.56 351.4 199.01 353.45 199.05 372.11 202.62 370.04 202.56 351.4"></polygon>
          </g>
        </g>
        <g>
          <g style="isolation:isolate">
            <polygon fill="#56a4a7" points="189.24 343.96 189.23 348.03 196.98 343.53 196.99 339.45 189.24 343.96"></polygon>
            <polygon fill="#5aabae" points="193.57 337.41 185.82 341.91 189.34 343.96 197.12 339.46 193.57 337.41"></polygon>
          </g>
          <g style="isolation:isolate">
            <polygon fill="#55a4a5" points="165.32 376.58 165.3 380.66 189.36 366.67 189.4 362.6 165.32 376.58"></polygon>
            <polygon fill="#58abad" points="185.83 360.55 161.77 374.53 165.32 376.58 189.4 362.6 185.83 360.55"></polygon>
          </g>
          <g style="isolation:isolate">
            <polygon fill="#498f90" points="185.8 346.01 182.27 343.96 182.32 362.6 185.83 364.67 185.8 346.01"></polygon>
            <polygon fill="#5aabae" points="185.82 341.91 182.27 343.96 185.8 346.01 189.34 343.96 185.82 341.91"></polygon>
            <polygon fill="#55a4a5" points="189.34 343.96 185.8 346.01 185.83 364.67 189.4 362.6 189.34 343.96"></polygon>
          </g>
        </g>
        <g>
          <g style="isolation:isolate">
            <polygon fill="#56a4a7" points="177.85 337.27 177.83 341.35 185.59 336.85 185.6 332.77 177.85 337.27"></polygon>
            <polygon fill="#5aabae" points="182.18 330.72 174.43 335.23 177.95 337.27 185.73 332.77 182.18 330.72"></polygon>
          </g>
          <g style="isolation:isolate">
            <polygon fill="#55a4a5" points="153.92 369.89 153.91 373.97 177.97 359.99 178 355.92 153.92 369.89"></polygon>
            <polygon fill="#58abad" points="174.44 353.87 150.38 367.85 153.92 369.89 178 355.92 174.44 353.87"></polygon>
          </g>
          <g style="isolation:isolate">
            <polygon fill="#498f90" points="174.4 339.32 170.88 337.28 170.93 355.92 174.44 357.99 174.4 339.32"></polygon>
            <polygon fill="#5aabae" points="174.43 335.23 170.88 337.28 174.4 339.32 177.95 337.27 174.43 335.23"></polygon>
            <polygon fill="#55a4a5" points="177.95 337.27 174.4 339.32 174.44 357.99 178 355.92 177.95 337.27"></polygon>
          </g>
        </g>
        <g>
          <g style="isolation:isolate">
            <polygon fill="#56a4a7" points="165.52 330.02 165.5 334.1 173.26 329.59 173.27 325.52 165.52 330.02"></polygon>
            <polygon fill="#5aabae" points="169.85 323.47 162.1 327.97 165.62 330.02 173.4 325.52 169.85 323.47"></polygon>
          </g>
          <g style="isolation:isolate">
            <polygon fill="#55a4a5" points="141.59 362.64 141.58 366.72 165.64 352.74 165.68 348.66 141.59 362.64"></polygon>
            <polygon fill="#58abad" points="162.11 346.61 138.05 360.6 141.59 362.64 165.68 348.66 162.11 346.61"></polygon>
          </g>
          <g style="isolation:isolate">
            <polygon fill="#498f90" points="162.07 332.07 158.55 330.02 158.6 348.66 162.11 350.73 162.07 332.07"></polygon>
            <polygon fill="#5aabae" points="162.1 327.97 158.55 330.02 162.07 332.07 165.62 330.02 162.1 327.97"></polygon>
            <polygon fill="#55a4a5" points="165.62 330.02 162.07 332.07 162.11 350.73 165.68 348.66 165.62 330.02"></polygon>
          </g>
        </g>
        <g>
          <g style="isolation:isolate">
            <polygon fill="#56a4a7" points="153.47 322.33 153.46 326.41 161.21 321.91 161.22 317.83 153.47 322.33"></polygon>
            <polygon fill="#5aabae" points="157.8 315.78 150.05 320.29 153.58 322.34 161.35 317.83 157.8 315.78"></polygon>
          </g>
          <g style="isolation:isolate">
            <polygon fill="#55a4a5" points="129.55 354.96 129.54 359.03 153.6 345.05 153.63 340.98 129.55 354.96"></polygon>
            <polygon fill="#58abad" points="150.06 338.93 126 352.91 129.55 354.96 153.63 340.98 150.06 338.93"></polygon>
          </g>
          <g style="isolation:isolate">
            <polygon fill="#498f90" points="150.03 324.38 146.5 322.34 146.56 340.98 150.06 343.05 150.03 324.38"></polygon>
            <polygon fill="#5aabae" points="150.05 320.29 146.5 322.34 150.03 324.38 153.58 322.34 150.05 320.29"></polygon>
            <polygon fill="#55a4a5" points="153.58 322.34 150.03 324.38 150.06 343.05 153.63 340.98 153.58 322.34"></polygon>
          </g>
        </g>
      </g>
      <g>
        <g>
          <g style="isolation:isolate">
            <polygon fill="#56a4a7" points="280.17 360.66 280.18 364.74 272.43 360.23 272.42 356.16 280.17 360.66"></polygon>
            <polygon fill="#5aabae" points="275.84 354.11 283.59 358.62 280.06 360.66 272.29 356.16 275.84 354.11"></polygon>
          </g>
          <g style="isolation:isolate">
            <polygon fill="#55a4a5" points="304.09 393.28 304.11 397.36 280.05 383.38 280.01 379.31 304.09 393.28"></polygon>
            <polygon fill="#58abad" points="283.58 377.26 307.64 391.24 304.09 393.28 280.01 379.31 283.58 377.26"></polygon>
          </g>
          <g style="isolation:isolate">
            <polygon fill="#498f90" points="283.61 362.71 287.14 360.67 287.09 379.31 283.58 381.37 283.61 362.71"></polygon>
            <polygon fill="#5aabae" points="283.59 358.62 287.14 360.67 283.61 362.71 280.06 360.66 283.59 358.62"></polygon>
            <polygon fill="#55a4a5" points="280.06 360.66 283.61 362.71 283.58 381.37 280.01 379.31 280.06 360.66"></polygon>
          </g>
        </g>
        <g>
          <g style="isolation:isolate">
            <polygon fill="#56a4a7" points="293.62 352.81 293.63 356.89 285.88 352.39 285.87 348.31 293.62 352.81"></polygon>
            <polygon fill="#5aabae" points="289.28 346.26 297.03 350.77 293.51 352.82 285.73 348.31 289.28 346.26"></polygon>
          </g>
          <g style="isolation:isolate">
            <polygon fill="#55a4a5" points="317.54 385.44 317.55 389.51 293.49 375.53 293.46 371.46 317.54 385.44"></polygon>
            <polygon fill="#58abad" points="297.02 369.41 321.08 383.39 317.54 385.44 293.46 371.46 297.02 369.41"></polygon>
          </g>
          <g style="isolation:isolate">
            <polygon fill="#498f90" points="297.06 354.86 300.58 352.82 300.53 371.46 297.02 373.53 297.06 354.86"></polygon>
            <polygon fill="#5aabae" points="297.03 350.77 300.58 352.82 297.06 354.86 293.51 352.82 297.03 350.77"></polygon>
            <polygon fill="#55a4a5" points="293.51 352.82 297.06 354.86 297.02 373.53 293.46 371.46 293.51 352.82"></polygon>
          </g>
        </g>
        <g>
          <g style="isolation:isolate">
            <polygon fill="#56a4a7" points="306.84 345.38 306.85 349.45 299.1 344.95 299.08 340.87 306.84 345.38"></polygon>
            <polygon fill="#5aabae" points="302.5 338.82 310.25 343.33 306.73 345.38 298.95 340.87 302.5 338.82"></polygon>
          </g>
          <g style="isolation:isolate">
            <polygon fill="#55a4a5" points="330.76 378 330.77 382.07 306.71 368.09 306.68 364.02 330.76 378"></polygon>
            <polygon fill="#58abad" points="310.24 361.97 334.3 375.95 330.76 378 306.68 364.02 310.24 361.97"></polygon>
          </g>
          <g style="isolation:isolate">
            <polygon fill="#498f90" points="310.28 347.43 313.8 345.38 313.75 364.02 310.24 366.09 310.28 347.43"></polygon>
            <polygon fill="#5aabae" points="310.25 343.33 313.8 345.38 310.28 347.43 306.73 345.38 310.25 343.33"></polygon>
            <polygon fill="#55a4a5" points="306.73 345.38 310.28 347.43 310.24 366.09 306.68 364.02 306.73 345.38"></polygon>
          </g>
        </g>
        <g>
          <g style="isolation:isolate">
            <polygon fill="#56a4a7" points="318.23 338.69 318.24 342.77 310.49 338.26 310.48 334.19 318.23 338.69"></polygon>
            <polygon fill="#5aabae" points="313.89 332.14 321.65 336.64 318.12 338.69 310.35 334.19 313.89 332.14"></polygon>
          </g>
          <g style="isolation:isolate">
            <polygon fill="#55a4a5" points="342.15 371.31 342.16 375.39 318.1 361.41 318.07 357.33 342.15 371.31"></polygon>
            <polygon fill="#58abad" points="321.64 355.28 345.69 369.27 342.15 371.31 318.07 357.33 321.64 355.28"></polygon>
          </g>
          <g style="isolation:isolate">
            <polygon fill="#498f90" points="321.67 340.74 325.2 338.69 325.14 357.34 321.63 359.4 321.67 340.74"></polygon>
            <polygon fill="#5aabae" points="321.65 336.64 325.2 338.69 321.67 340.74 318.12 338.69 321.65 336.64"></polygon>
            <polygon fill="#55a4a5" points="318.12 338.69 321.67 340.74 321.63 359.4 318.07 357.33 318.12 338.69"></polygon>
          </g>
        </g>
        <g>
          <g style="isolation:isolate">
            <polygon fill="#56a4a7" points="330.56 331.44 330.57 335.51 322.82 331.01 322.81 326.93 330.56 331.44"></polygon>
            <polygon fill="#5aabae" points="326.22 324.89 333.98 329.39 330.45 331.44 322.67 326.94 326.22 324.89"></polygon>
          </g>
          <g style="isolation:isolate">
            <polygon fill="#55a4a5" points="354.48 364.06 354.49 368.14 330.43 354.15 330.4 350.08 354.48 364.06"></polygon>
            <polygon fill="#58abad" points="333.96 348.03 358.02 362.01 354.48 364.06 330.4 350.08 333.96 348.03"></polygon>
          </g>
          <g style="isolation:isolate">
            <polygon fill="#498f90" points="334 333.49 337.53 331.44 337.47 350.08 333.96 352.15 334 333.49"></polygon>
            <polygon fill="#5aabae" points="333.98 329.39 337.53 331.44 334 333.49 330.45 331.44 333.98 329.39"></polygon>
            <polygon fill="#55a4a5" points="330.45 331.44 334 333.49 333.96 352.15 330.4 350.08 330.45 331.44"></polygon>
          </g>
        </g>
        <g>
          <g style="isolation:isolate">
            <polygon fill="#56a4a7" points="342.6 323.75 342.62 327.83 334.86 323.32 334.85 319.25 342.6 323.75"></polygon>
            <polygon fill="#5aabae" points="338.27 317.2 346.02 321.7 342.5 323.75 334.72 319.25 338.27 317.2"></polygon>
          </g>
          <g style="isolation:isolate">
            <polygon fill="#55a4a5" points="366.53 356.37 366.54 360.45 342.48 346.47 342.45 342.39 366.53 356.37"></polygon>
            <polygon fill="#58abad" points="346.01 340.35 370.07 354.33 366.53 356.37 342.45 342.39 346.01 340.35"></polygon>
          </g>
          <g style="isolation:isolate">
            <polygon fill="#498f90" points="346.05 325.8 349.57 323.75 349.52 342.4 346.01 344.46 346.05 325.8"></polygon>
            <polygon fill="#5aabae" points="346.02 321.7 349.57 323.75 346.05 325.8 342.5 323.75 346.02 321.7"></polygon>
            <polygon fill="#55a4a5" points="342.5 323.75 346.05 325.8 346.01 344.46 342.45 342.39 342.5 323.75"></polygon>
          </g>
        </g>
      </g>
    </g>
    <g>
      <g style="isolation:isolate">
        <path fill="#30545b" d="M2.58,303.71l-.09,32.61c82.76,47.78,167.32,94.51,250.08,142.29l.9-30.05c-82.76-47.78-168.13-97.07-250.88-144.85Z"></path>
        <path fill="#30545b" d="M2.58,303.71l-.09,32.61c82.76,47.78,165.52,95.56,248.27,143.34l.09-32.61c-82.76-47.78-165.52-95.56-248.27-143.34Z"></path>
        <path fill="#1a4e52" d="M250.85,447.05l-.09,32.61c82.22-47.78,164.44-95.56,246.67-143.36l.09-32.61c-82.23,47.8-164.45,95.58-246.67,143.36Z"></path>
        <g>
          <path fill="#0f7c7d" d="M250.85,447.05,2.58,303.71c0,47.13,0,23.57,0,0,.04,2.07,246.13,143.3,248.27,143.34M250.85,447.05s245.85-142.87,246.66-143.36l-248.3-143.33S2.62,303.68,2.58,303.71M249.6,435.34c-64.01-36.98-128.04-73.94-192.06-110.89-11.53-6.65-23.05-13.3-34.58-19.95-.37-.21-.73-.45-1.31-.8,4.53-2.63,8.84-5.14,13.15-7.65,60.91-35.38,121.81-70.76,182.72-106.14,10.36-6.02,20.73-12.03,31.08-18.08.74-.43,1.26-.35,1.95.05,41.79,24.14,83.59,48.26,125.39,72.38,33.87,19.55,67.75,39.1,101.62,58.66.38.22.75.45,1.3.78-.42.28-.72.5-1.04.68-35.45,20.6-70.9,41.19-106.35,61.78l-121.87,69.18Z"></path>
          <path fill="#0f7c7d" d="M473.03,303.03c-74.11-42.78-148.23-85.55-222.33-128.34-.81-.47-1.4-.53-2.25-.03-12.5,7.29-25.02,14.53-37.53,21.8-61.09,35.5-122.18,71-183.26,106.5-.37.21-.72.44-1.21.74.48.3.8.52,1.13.71,11.03,6.37,22.05,12.73,33.08,19.1,29.7,17.14,59.39,34.29,89.09,51.43,33.77,19.49,67.54,38.97,101.29,58.48,7.75-4.57,15.54-9.06,23.32-13.58,32.58-18.92,65.15-37.85,97.72-56.77,31.44-18.27,62.88-36.54,94.33-54.8,2.54-1.48,5.08-2.96,7.76-4.52-.48-.3-.8-.51-1.13-.71ZM250.76,422.59l-206.43-118.11,205.23-119.26,205.13,118.49-203.92,118.89Z"></path>
        </g>
        <path fill="#9dd1d7" d="M477.56,302.91c-33.87-19.55-67.75-39.11-101.62-58.66-41.8-24.12-83.6-48.25-125.39-72.38-.69-.4-1.21-.48-1.95-.05-12.08,7.06-24.18,14.07-36.28,21.1-57.36,33.35-114.72,66.73-172.13,100-6.16,3.57-12.14,7.05-18.54,10.78.58.35.94.59,1.31.8,11.53,6.65,23.05,13.3,34.58,19.95,64.03,36.95,128.05,73.91,192.06,110.89,1.08.63,1.82.6,2.89-.02,39.65-23.08,79.32-46.12,118.99-69.16,35.45-20.59,70.9-41.19,106.35-61.78.32-.19.62-.41,1.04-.68-.55-.33-.92-.56-1.3-.78ZM466.4,308.26c-31.44,18.27-62.88,36.54-94.33,54.8-32.57,18.93-65.15,37.85-97.72,56.77-7.78,4.52-15.57,9.01-23.32,13.58-33.75-19.51-67.52-39-101.29-58.48-29.7-17.14-59.39-34.28-89.09-51.43-11.03-6.36-22.05-12.73-33.08-19.1-.33-.19-.65-.41-1.13-.71.49-.3.85-.53,1.21-.74,61.09-35.5,122.17-71,183.26-106.5,12.51-7.27,25.04-14.51,37.53-21.8.86-.5,1.44-.44,2.25.03,74.1,42.79,148.22,85.57,222.33,128.34.33.19.65.41,1.13.71-2.68,1.56-5.22,3.05-7.76,4.52Z"></path>
      </g>
    </g>
  </g>
  <g>
    <polygon fill="#9dd1d7" points="42.52 337.36 42.47 351.95 197.87 441.67 197.91 427.08 42.52 337.36"></polygon>
  </g>
  <g>
    <polygon fill="#9dd1d7" points="264.7 456.6 257.6 460.7 257.63 468.85 264.72 464.75 264.7 456.6"></polygon>
    <polygon fill="#9dd1d7" points="281.36 447.12 274.27 451.22 274.29 459.37 281.39 455.27 281.36 447.12"></polygon>
    <polygon fill="#9dd1d7" points="298.03 437.87 290.94 441.97 290.96 450.12 298.06 446.02 298.03 437.87"></polygon>
  </g>
  <g>
    <g>
      <polygon fill="url(#a)" points="299.93 477.03 264.69 456.56 257.59 460.65 257.62 468.8 292.86 489.28 299.95 485.19 299.93 477.03" filter="url(#b)"></polygon>
      <polygon fill="url(#c)" points="316.6 467.6 281.36 447.12 274.27 451.22 274.29 459.37 309.53 479.85 316.63 475.75 316.6 467.6" filter="url(#d)"></polygon>
      <polygon fill="url(#e)" points="333.27 458.35 298.03 437.87 290.94 441.97 290.96 450.12 326.2 470.6 333.3 466.5 333.27 458.35" filter="url(#f)"></polygon>
    </g>
    <g>
      <polygon fill="url(#g)" points="42.18 336.9 6.94 357.38 6.9 372.01 162.88 462.06 198.12 441.58 198.16 426.96 42.18 336.9" filter="url(#h)"></polygon>
    </g>
  </g>
  <g>
    <g>
      <g style="isolation:isolate">
        <path fill="#60bfc2" d="M347.51,27.07l-14.1-8.19c-.5-.29-1.02-.56-1.54-.81-.04-.02-.08-.04-.12-.06-.35-.16-.7-.31-1.05-.45-.04-.02-.09-.04-.13-.06-.41-.16-.83-.31-1.25-.44-.04-.01-.08-.02-.13-.04-.14-.04-.28-.08-.41-.12-.33-.1-.67-.19-1-.27-.17-.04-.34-.08-.51-.11-.15-.03-.3-.07-.46-.1-.17-.03-.34-.05-.51-.08-.17-.03-.35-.06-.53-.08-.36-.05-.72-.09-1.08-.12-.14-.01-.28-.03-.42-.04-.04,0-.07,0-.11-.01-.47-.03-.95-.04-1.44-.05-.07,0-.14,0-.21,0-.4,0-.8.01-1.21.03-.05,0-.11.01-.16.01-.22.01-.44.04-.66.06-.33.03-.67.06-1.01.1-.24.03-.48.07-.72.11-.22.03-.44.06-.66.1-.1.02-.2.04-.29.06-.34.07-.69.14-1.04.22-.27.06-.55.12-.82.19-.36.09-.72.2-1.08.31-.21.06-.42.11-.63.18-.08.02-.15.05-.23.08-.17.05-.33.11-.5.17-.41.14-.81.29-1.22.44-.18.07-.37.14-.55.22-.44.18-.89.37-1.34.57-.13.06-.26.11-.39.17-.53.24-1.06.5-1.6.77-.04.02-.07.04-.11.06-.68.35-1.37.72-2.06,1.12-.82.47-1.63.98-2.44,1.5-.27.18-.53.37-.8.55-.54.36-1.07.73-1.6,1.11-.32.23-.63.49-.95.73-.47.36-.95.71-1.41,1.09-.34.27-.66.56-1,.85-.41.35-.83.69-1.23,1.05-.03.02-.05.05-.07.07-.87.78-1.74,1.59-2.59,2.43-.24.23-.47.48-.7.72-.62.62-1.23,1.26-1.83,1.91-.12.13-.25.25-.37.39-.29.32-.57.64-.85.97-.2.23-.41.46-.61.69-.65.75-1.29,1.52-1.92,2.3-.11.14-.22.27-.33.41-.66.84-1.31,1.69-1.96,2.56-.15.21-.31.42-.46.63-.22.3-.44.59-.65.89-.21.29-.4.6-.6.89-.53.77-1.06,1.55-1.58,2.34-.17.27-.36.52-.53.79-.16.24-.3.5-.46.75-.47.76-.94,1.52-1.39,2.29-.2.34-.42.67-.61,1.01-.11.19-.21.39-.32.58-.46.8-.9,1.62-1.34,2.44-.21.39-.43.76-.63,1.15-.07.13-.13.26-.19.39-.51.98-.99,1.97-1.47,2.97-.16.34-.34.66-.49,1-.02.05-.05.11-.07.16-.66,1.42-1.29,2.86-1.89,4.31-.02.05-.04.1-.07.15-.45,1.1-.88,2.2-1.3,3.31-.1.26-.19.52-.29.78-.11.31-.23.61-.34.91-.33.91-.64,1.83-.94,2.75,0,0,0,.01,0,.02-.3.91-.58,1.83-.86,2.75-.08.27-.15.54-.23.81-.12.4-.23.81-.34,1.21-.25.9-.48,1.81-.71,2.72-.09.37-.19.74-.27,1.11-.04.17-.09.34-.13.51-.13.58-.24,1.16-.36,1.74-.13.64-.28,1.27-.4,1.91-.14.73-.25,1.47-.38,2.2-.1.63-.22,1.26-.31,1.89-.02.11-.04.22-.05.33-.15,1.09-.28,2.18-.39,3.26-.03.26-.05.52-.07.79-.09.99-.17,1.97-.22,2.96-.02.34-.04.68-.05,1.02-.05,1.21-.09,2.43-.09,3.63.04,13.95,4,24.42,10.48,30.37,1.18,1.08,2.44,2.01,3.78,2.79l14.1,8.19c-1.34-.78-2.6-1.71-3.78-2.79-6.48-5.95-10.44-16.42-10.48-30.37,0-1.2.03-2.41.09-3.63.01-.34.03-.67.05-1.01.06-.98.13-1.97.22-2.96.02-.26.04-.52.07-.78.12-1.2.27-2.4.45-3.6.09-.63.2-1.25.31-1.88.12-.74.24-1.47.38-2.21.12-.63.26-1.27.39-1.9.16-.75.31-1.51.49-2.26.09-.37.18-.74.27-1.11.22-.91.46-1.82.71-2.72.11-.4.22-.8.34-1.2.34-1.19.7-2.39,1.09-3.57,0,0,0,0,0,0,.4-1.23.83-2.45,1.28-3.67.09-.26.19-.52.29-.78.44-1.16.89-2.32,1.36-3.46.6-1.45,1.23-2.89,1.89-4.31.18-.39.38-.78.57-1.17.48-1,.96-1.99,1.46-2.96.27-.52.55-1.03.83-1.55.44-.82.88-1.63,1.33-2.43.31-.54.62-1.06.93-1.59.46-.77.92-1.54,1.39-2.29.33-.52.66-1.03.99-1.54.52-.79,1.04-1.57,1.57-2.34.42-.6.83-1.2,1.25-1.79.15-.21.3-.42.46-.63.75-1.01,1.51-2.01,2.28-2.97.63-.78,1.28-1.55,1.92-2.3.2-.23.41-.46.61-.69.41-.46.82-.91,1.23-1.36.6-.65,1.21-1.29,1.83-1.91.24-.24.47-.48.7-.72.85-.84,1.71-1.65,2.59-2.43.43-.39.87-.75,1.31-1.12.33-.28.66-.57.99-.84.47-.38.95-.74,1.42-1.1.31-.24.62-.49.94-.72.53-.39,1.07-.75,1.61-1.12.26-.18.53-.37.79-.55.81-.53,1.62-1.03,2.44-1.5.69-.4,1.38-.77,2.06-1.12.57-.29,1.14-.57,1.71-.83.13-.06.26-.11.39-.17.45-.2.89-.39,1.34-.57.19-.07.37-.15.55-.22.41-.16.82-.3,1.22-.44.17-.06.33-.12.5-.17.29-.09.57-.17.86-.26.36-.11.72-.21,1.08-.31.28-.07.55-.13.82-.19.35-.08.7-.16,1.04-.22.32-.06.63-.11.95-.16.24-.04.48-.08.72-.11.34-.04.67-.07,1-.1.22-.02.44-.04.66-.06.46-.03.92-.04,1.37-.05.07,0,.14,0,.21,0,.52,0,1.04.02,1.55.06.14,0,.28.03.42.04.37.03.73.07,1.09.12.18.02.35.05.52.08.33.05.65.11.97.18.17.04.34.07.51.11.34.08.67.17,1.01.27.14.04.28.07.41.12.47.14.93.3,1.38.48.04.02.09.04.13.06.4.16.79.33,1.17.51.52.25,1.03.51,1.54.8,0,0,0,0,0,0h0s0,0,0,0Z"></path>
        <path fill="#60bfc2" d="M280.37,26.42l-4.95-2.88c-.65-.38-1.32-.72-1.99-1.04-.05-.03-.1-.06-.16-.08-.43-.2-.87-.38-1.32-.56-.07-.03-.13-.06-.2-.08-.53-.21-1.06-.4-1.61-.57-.05-.02-.11-.03-.16-.05-.17-.05-.35-.1-.52-.15-.43-.12-.86-.24-1.3-.34-.22-.05-.44-.1-.66-.14-.2-.04-.39-.09-.59-.13-.22-.04-.44-.07-.66-.1-.22-.04-.44-.07-.67-.1-.47-.06-.94-.11-1.42-.15-.17-.01-.34-.04-.51-.05-.05,0-.09,0-.14-.01-.61-.04-1.23-.06-1.86-.06-.11,0-.22,0-.32,0-.49,0-.99.01-1.49.04-.07,0-.15.01-.22.02-.28.02-.56.05-.84.07-.43.04-.86.08-1.3.13-.3.04-.61.09-.91.13-.27.04-.54.07-.82.12-.13.02-.27.06-.4.09-.44.08-.88.18-1.33.28-.36.08-.71.16-1.07.25-.45.12-.91.25-1.37.39-.27.08-.53.14-.8.22-.11.04-.22.08-.34.11-.21.07-.41.14-.62.21-.53.18-1.06.37-1.6.58-.22.08-.43.16-.65.25-.69.27-1.38.57-2.08.88-.04.02-.07.03-.11.05-.62.28-1.24.58-1.87.89-.13.06-.26.14-.39.2-.15.08-.3.16-.45.24-.74.39-1.48.79-2.23,1.22-.2.11-.39.23-.59.34,0,0,.01,0,.02,0,0,0,0,0,0,0,0,0-.01,0-.02,0-.8.48-1.6.98-2.4,1.49-.14.09-.29.2-.43.29-.77.51-1.54,1.04-2.31,1.59-.21.15-.43.3-.64.46-.06.05-.12.1-.19.14-.68.5-1.35,1.02-2.03,1.55-.2.16-.4.31-.6.47-.05.04-.09.08-.14.12-.86.7-1.72,1.42-2.57,2.17-.03.03-.07.06-.1.08-.63.56-1.26,1.13-1.88,1.71-.09.09-.18.18-.27.26-.57.54-1.14,1.09-1.7,1.65-.23.22-.45.45-.67.68-.43.43-.85.87-1.28,1.31-.25.26-.5.53-.75.8-.23.25-.46.49-.69.74-.12.13-.24.27-.35.4-.54.6-1.08,1.21-1.61,1.82-.22.26-.45.51-.66.77-.74.88-1.47,1.76-2.2,2.67-.01.01-.02.03-.04.04-.19.24-.37.49-.56.73-.45.58-.9,1.15-1.35,1.74-.25.33-.49.67-.74,1-.39.53-.78,1.05-1.16,1.58-.04.06-.08.11-.13.17-.28.39-.54.79-.82,1.18-.28.4-.56.8-.83,1.2-.32.47-.62.94-.93,1.41-.27.4-.53.81-.8,1.21-.03.05-.07.1-.1.15-.05.08-.1.16-.15.24-1.03,1.62-2.04,3.27-3.01,4.96,0,0,0,.01,0,.02,0,.02-.02.03-.03.05-.96,1.67-1.89,3.37-2.79,5.09-.04.08-.08.15-.12.22-.02.05-.05.09-.07.14-.2.39-.39.78-.59,1.16-.28.56-.57,1.12-.85,1.68-.2.42-.4.83-.6,1.25-.22.46-.44.91-.65,1.37-.04.09-.08.18-.12.26-.22.48-.44.97-.66,1.46-.23.5-.46,1.01-.68,1.52-.21.49-.42.98-.63,1.47-.18.42-.36.83-.53,1.25-.04.09-.07.19-.11.28-.25.6-.48,1.21-.72,1.81-.17.44-.35.88-.52,1.32-.25.65-.48,1.3-.72,1.94-.13.36-.27.72-.4,1.08-.01.04-.03.08-.04.12-.39,1.1-.77,2.21-1.14,3.32-.08.24-.15.49-.23.73-.28.87-.56,1.75-.82,2.62-.03.09-.06.18-.09.28-.07.23-.13.46-.19.69-.27.94-.54,1.88-.79,2.83-.11.4-.21.79-.31,1.19-.25.95-.48,1.91-.7,2.86-.05.23-.12.46-.17.69-.02.09-.04.18-.06.26-.17.74-.32,1.49-.48,2.23-.07.36-.15.71-.23,1.07-.22,1.1-.42,2.2-.61,3.3-.19,1.12-.37,2.25-.52,3.37-.03.24-.06.48-.09.73-.07.5-.13,1-.19,1.5-.11.95-.22,1.89-.31,2.83-.05.52-.1,1.03-.14,1.55-.08.98-.14,1.95-.19,2.92-.02.45-.05.9-.07,1.34-.06,1.4-.09,2.8-.09,4.19.06,20.12,6.45,34.61,16.66,41.59.54.37,1.1.72,1.67,1.05h0s0,0,0,0l14.1,8.19c-.57-.33-1.12-.68-1.67-1.05-10.21-6.97-16.61-21.47-16.66-41.59,0-1.39.03-2.79.09-4.19.02-.45.05-.9.07-1.34.05-.97.11-1.95.19-2.92.04-.51.09-1.03.14-1.54.09-.94.19-1.89.31-2.84.06-.5.12-1,.19-1.49.18-1.36.38-2.73.61-4.1.19-1.1.39-2.2.61-3.3.07-.36.15-.73.23-1.09.15-.74.31-1.47.47-2.21.07-.32.15-.64.23-.96.22-.95.46-1.9.7-2.85.1-.4.21-.8.31-1.2.25-.94.52-1.88.79-2.82.09-.32.18-.65.28-.97.26-.88.54-1.75.82-2.62.08-.24.15-.49.23-.73.36-1.11.74-2.22,1.14-3.32.14-.4.3-.8.44-1.2.24-.65.47-1.3.72-1.94.17-.44.34-.87.52-1.31.24-.61.48-1.22.72-1.82.21-.51.42-1.01.64-1.52.21-.49.41-.99.63-1.48.22-.51.45-1.01.68-1.52.22-.48.43-.97.66-1.45.25-.55.52-1.09.78-1.64.2-.42.39-.83.6-1.24.28-.56.56-1.12.85-1.68.2-.39.39-.78.59-1.16.06-.12.13-.24.19-.36.9-1.72,1.83-3.42,2.79-5.09.01-.02.02-.04.04-.07.97-1.68,1.98-3.34,3.02-4.96.08-.13.16-.26.24-.39.26-.41.53-.82.8-1.22.31-.47.62-.94.93-1.41.27-.41.56-.8.83-1.2.31-.45.63-.91.94-1.35.38-.53.77-1.06,1.16-1.58.25-.33.49-.67.74-1,.44-.59.89-1.16,1.35-1.74.2-.25.39-.52.6-.77.72-.91,1.46-1.8,2.2-2.67.22-.26.44-.51.66-.76.53-.62,1.07-1.23,1.61-1.83.35-.38.7-.76,1.05-1.14.25-.27.5-.53.75-.8.42-.44.85-.88,1.28-1.31.22-.23.45-.46.67-.68.56-.56,1.13-1.11,1.7-1.65.09-.09.18-.18.27-.26.65-.61,1.31-1.21,1.98-1.79.86-.76,1.73-1.49,2.61-2.21.23-.19.46-.37.7-.55.67-.53,1.35-1.05,2.03-1.56.27-.2.55-.4.82-.6.76-.55,1.53-1.08,2.31-1.6.14-.1.29-.2.43-.29.99-.64,1.98-1.26,2.99-1.84.75-.43,1.49-.83,2.23-1.22.15-.08.3-.16.45-.24.76-.39,1.51-.75,2.25-1.09.04-.02.07-.03.11-.05.7-.32,1.39-.61,2.08-.88.22-.09.43-.17.65-.25.54-.2,1.07-.4,1.6-.58.21-.07.42-.14.62-.21.38-.12.75-.23,1.13-.34.46-.13.92-.27,1.37-.39.36-.09.71-.17,1.07-.25.44-.1.89-.2,1.33-.28.41-.08.82-.14,1.22-.21.3-.05.61-.1.91-.13.44-.06.87-.1,1.3-.13.28-.02.56-.06.84-.07.58-.04,1.15-.05,1.72-.06.1,0,.21,0,.31,0,.67,0,1.34.03,2,.07.17.01.34.03.51.05.48.04.95.09,1.42.15.22.03.44.07.67.1.42.07.84.14,1.25.23.22.05.44.09.65.14.44.1.87.22,1.3.34.17.05.35.1.52.15.6.19,1.19.39,1.77.62.06.03.13.06.19.08.5.2.99.42,1.48.65.68.32,1.34.66,1.99,1.04l-9.15-5.32Z"></path>
        <g>
          <path fill="#9dd1d7" d="M320.32,29.22c-6.61,3.82-12.86,9.49-18.39,16.37-8.87-17.7-26.77-22.97-47.37-11.08-24.78,14.3-45.53,48.87-51.29,82.74-4.38-.07-9.23,1.28-14.32,4.23-19.4,11.2-35.06,41.17-34.99,66.94.07,24.03,13.8,35.92,31.38,28.34,1.25-.54,2.53-1.18,3.82-1.92l-.09.05s.09-.05.14-.08c.02,0,.03-.02.05-.03h0s0,0,0,0c0,0,0,0,0,0l129.49-74.83s0,0,0,0c0,0,0,0,0,0h0c.62-.32,1.25-.65,1.88-1.02.71-.41,1.41-.84,2.11-1.29,21.82-14.06,39.11-48.05,39.03-77.41-.09-30.29-18.64-44.18-41.45-31.02ZM214.91,185c-.18.37-.36.74-.54,1.1.19-.36.36-.74.54-1.1ZM213.3,188.12c-.15.27-.29.55-.44.81.15-.27.29-.54.44-.81ZM211.53,191.23c-.09.15-.18.31-.27.46.09-.15.18-.31.27-.46ZM209.78,194.05c-.07.1-.13.2-.19.3.07-.1.13-.2.19-.3ZM207.87,196.88s-.02.04-.04.05c.01-.02.02-.04.04-.05ZM217.12,180.27c.43-.99.83-1.99,1.23-3-.39,1.01-.8,2.01-1.23,3ZM215.79,183.21c.16-.34.31-.69.46-1.03-.16.34-.3.69-.46,1.03Z"></path>
          <path fill="#79aeb5" d="M189.07,214.88c-1.26.72-2.5,1.36-3.73,2.16l3.73-2.16Z"></path>
        </g>
        <path fill="#60bfc2" d="M189.18,109.06c-.49,0-.98,0-1.48.03-.03,0-.07,0-.1,0-.12,0-.25.02-.37.03-.39.03-.79.07-1.19.12-.18.02-.35.05-.53.08-.17.03-.34.04-.51.08-.17.03-.34.07-.51.11-.25.05-.49.1-.74.16-.32.07-.65.16-.98.25-.25.07-.49.13-.74.21-.1.03-.2.05-.29.08-.41.13-.82.27-1.23.42-.04.02-.08.03-.13.05-.51.19-1.02.39-1.53.61-.13.06-.26.11-.4.17-.52.23-1.05.47-1.57.74-.02,0-.04.02-.06.03-.65.33-1.3.68-1.96,1.06,1,.58,2.08,1.21,3.2,1.86l-3.2-1.86c-.65.37-1.29.77-1.93,1.18-.21.14-.42.28-.63.43-.43.29-.85.58-1.27.88-.24.18-.49.36-.73.55-.38.29-.76.58-1.14.88-.25.2-.5.41-.76.62-.36.3-.73.61-1.09.92-.12.11-.25.21-.37.32-.1.09-.19.19-.29.27-.66.6-1.32,1.21-1.97,1.84-.07.06-.13.13-.2.19-.7.7-1.4,1.42-2.08,2.17-.08.08-.16.16-.23.24-.16.17-.31.35-.46.52-.28.32-.56.63-.84.96-.25.29-.5.59-.75.88-.28.33-.55.66-.82,1-.11.14-.23.27-.34.41-.07.09-.14.2-.22.29-.78.99-1.54,2-2.29,3.04-.04.05-.08.1-.11.15-.08.11-.15.23-.23.33-.65.93-1.29,1.87-1.91,2.84-.05.08-.11.16-.16.24-.02.03-.04.06-.06.09-.63.99-1.24,2-1.84,3.02-.07.11-.14.22-.2.33-.07.12-.13.24-.2.36-.59,1.03-1.16,2.07-1.72,3.13,0,.02-.02.04-.03.05-.03.06-.06.12-.09.18-.53,1.03-1.04,2.07-1.54,3.12-.06.14-.14.27-.2.4-.04.09-.07.17-.11.26-.52,1.13-1.02,2.26-1.5,3.41-.04.09-.08.18-.12.26-.05.12-.09.25-.14.37-.51,1.26-1,2.52-1.46,3.8-.01.03-.02.06-.03.09-.16.44-.3.89-.46,1.34-.11.31-.22.62-.32.94-.18.56-.35,1.11-.52,1.67-.08.25-.16.5-.23.75,0,.01,0,.02-.01.04-.04.15-.08.3-.13.45-.2.7-.4,1.41-.59,2.11-.08.31-.15.62-.23.93-.14.56-.28,1.12-.41,1.68-.02.09-.04.17-.06.26-.04.17-.07.34-.11.51-.18.81-.35,1.61-.5,2.42-.06.29-.11.59-.17.88-.18.99-.34,1.98-.48,2.96,0,.03-.01.07-.02.1,0,0,0,.01,0,.02-.06.44-.11.89-.16,1.33-.05.38-.1.77-.14,1.15-.05.49-.09.97-.13,1.46-.03.34-.06.67-.09,1.01-.04.58-.07,1.15-.09,1.73-.01.24-.03.49-.04.73-.03.81-.04,1.63-.04,2.43,0,.88.02,1.74.06,2.58.25,5.4,1.23,10.12,2.8,14.07.39.99.81,1.94,1.27,2.83.44.83.91,1.61,1.41,2.36.83,1.25,1.73,2.38,2.72,3.38,1.18,1.19,2.48,2.19,3.86,3l14.1,8.19s0,0,0,0h0c-6.93-4.03-11.49-12.97-12.07-25.63-.04-.84-.06-1.7-.06-2.58,0-.81.01-1.62.04-2.43,0-.24.03-.48.04-.73.03-.57.05-1.15.09-1.73.02-.33.06-.67.09-1.01.04-.49.08-.97.13-1.46.04-.38.09-.77.14-1.15.05-.44.1-.89.16-1.33,0-.04.01-.08.02-.12.14-.99.3-1.98.48-2.96.05-.29.11-.59.17-.88.15-.81.32-1.61.5-2.42.06-.26.11-.52.17-.77.13-.56.27-1.11.41-1.67.08-.31.15-.62.23-.93.19-.7.39-1.41.59-2.11.05-.16.09-.33.14-.49.07-.24.15-.49.23-.73.17-.56.34-1.13.53-1.69.1-.31.21-.62.32-.92.16-.48.32-.96.49-1.44.46-1.28.95-2.55,1.46-3.8.09-.21.17-.43.26-.64.48-1.15.98-2.29,1.5-3.41.1-.22.21-.44.31-.66.5-1.05,1.01-2.09,1.54-3.12.04-.08.08-.16.12-.24.55-1.06,1.13-2.1,1.72-3.13.13-.23.27-.46.4-.69.6-1.02,1.21-2.03,1.84-3.02.07-.11.15-.22.22-.33.62-.96,1.26-1.91,1.91-2.84.11-.16.23-.33.34-.49.74-1.04,1.51-2.05,2.29-3.04.19-.24.37-.47.56-.71.27-.34.54-.67.82-1,.25-.3.5-.59.75-.89.28-.32.56-.64.85-.96.23-.26.46-.51.69-.76.69-.74,1.38-1.47,2.08-2.17.06-.06.13-.12.2-.19.65-.64,1.31-1.25,1.97-1.85.22-.2.44-.4.67-.59.36-.31.72-.62,1.09-.92.25-.21.5-.41.76-.62.38-.3.76-.59,1.15-.88.24-.18.48-.37.73-.54.42-.3.85-.59,1.28-.88.21-.14.42-.29.63-.42.64-.41,1.28-.81,1.93-1.18l-2.97-1.72c1.04.6,2.04,1.18,2.97,1.72.66-.38,1.31-.73,1.96-1.06.55-.28,1.09-.53,1.63-.77.13-.06.27-.12.4-.17.51-.22,1.02-.42,1.53-.61.04-.02.09-.03.13-.05.51-.19,1.02-.35,1.53-.5.25-.07.49-.14.74-.21.33-.09.65-.17.98-.25.25-.06.49-.11.74-.16.34-.07.68-.13,1.02-.18.18-.03.36-.06.53-.08.4-.05.79-.09,1.19-.12.12,0,.25-.02.37-.03.53-.03,1.06-.05,1.58-.04l-14.1-8.19Z"></path>
      </g>
    </g>
  </g>
  <g>
    <g>
      <g style="isolation:isolate">
        <polygon fill="#d68567" points="264.52 132.54 261 130.49 265.47 141.18 268.99 143.23 264.52 132.54"></polygon>
        <polygon fill="#fb9c78" points="257.68 122.56 243.82 130.56 247.35 132.61 261.2 124.61 257.68 122.56"></polygon>
        <polygon fill="#d68567" points="254.14 106.99 250.62 104.94 257.68 122.56 261.2 124.61 254.14 106.99"></polygon>
        <polygon fill="#fb9c78" points="256.12 88.13 245.28 94.39 248.8 96.44 259.65 90.18 256.12 88.13"></polygon>
        <polygon fill="#e39f87" points="245.28 94.39 225.67 164.16 229.19 166.21 248.8 96.44 245.28 94.39"></polygon>
        <path fill="#f29774" d="M259.65,90.18l-10.84,6.26-19.61,69.77,10.88-6.28,4.15-15.67,20.3-11.72,4.47,10.69,11.15-6.44-20.5-46.61ZM247.35,132.61l6.8-25.62,7.06,17.62-13.85,8Z"></path>
      </g>
      <g style="isolation:isolate">
        <polygon fill="#da8668" points="285.11 75.48 281.58 73.43 281.75 131.78 285.27 133.83 285.11 75.48"></polygon>
        <polygon fill="#fb9c78" points="291.84 67.51 281.58 73.43 285.11 75.48 295.36 69.56 291.84 67.51"></polygon>
        <polygon fill="#f29774" points="295.36 69.56 285.11 75.48 285.27 133.83 295.53 127.91 295.36 69.56"></polygon>
      </g>
    </g>
  </g>
  <g opacity=".3">
    <polygon fill="#0f7c7d" points="250.52 262.75 180.05 303.71 250.99 344.67 321.47 303.71 250.52 262.75"></polygon>
    <g>
      <polygon fill="#0e4a4d" points="184.59 303.39 191.69 307.49 198.75 303.39 191.65 299.29 184.59 303.39"></polygon>
      <polygon fill="#9dd1d7" points="192.96 298.39 200.06 302.49 207.11 298.39 200.01 294.29 192.96 298.39"></polygon>
      <polygon fill="#3dacaf" points="201.54 293.39 208.64 297.49 215.68 293.39 208.58 289.29 201.54 293.39"></polygon>
      <polygon fill="#9dd1d7" points="209.91 288.38 217.01 292.48 224.05 288.39 216.95 284.29 209.91 288.38"></polygon>
      <polygon fill="#3dacaf" points="218.44 283.39 225.54 287.49 232.58 283.39 225.48 279.29 218.44 283.39"></polygon>
      <polygon fill="#9dd1d7" points="226.81 278.38 233.91 282.48 240.95 278.39 233.85 274.29 226.81 278.38"></polygon>
      <polygon fill="#0e4a4d" points="235.36 273.39 242.46 277.49 249.5 273.39 242.4 269.29 235.36 273.39"></polygon>
      <polygon fill="#9dd1d7" points="243.73 268.38 250.83 272.48 257.87 268.39 250.77 264.29 243.73 268.38"></polygon>
    </g>
    <g>
      <polygon fill="#9dd1d7" points="192.96 308.39 200.06 312.49 207.11 308.39 200.01 304.29 192.96 308.39"></polygon>
      <polygon fill="#60bfc2" points="201.32 303.39 208.42 307.49 215.48 303.39 208.38 299.29 201.32 303.39"></polygon>
      <polygon fill="#60bfc2" points="209.9 298.39 217 302.49 224.04 298.4 216.94 294.3 209.9 298.39"></polygon>
      <polygon fill="#0e4a4d" points="218.27 293.39 225.37 297.49 232.41 293.39 225.31 289.29 218.27 293.39"></polygon>
      <polygon fill="#0e4a4d" points="226.81 288.39 233.91 292.49 240.95 288.4 233.85 284.3 226.81 288.39"></polygon>
      <polygon fill="#60bfc2" points="235.18 283.39 242.28 287.49 249.32 283.39 242.22 279.29 235.18 283.39"></polygon>
      <polygon fill="#3dacaf" points="243.73 278.39 250.82 282.49 257.87 278.4 250.77 274.3 243.73 278.39"></polygon>
      <polygon fill="#60bfc2" points="252.1 273.39 259.19 277.49 266.24 273.39 259.14 269.29 252.1 273.39"></polygon>
    </g>
    <g>
      <polygon fill="#3dacaf" points="201.32 313.28 208.42 317.38 215.48 313.28 208.38 309.18 201.32 313.28"></polygon>
      <polygon fill="#9dd1d7" points="209.69 308.28 216.79 312.38 223.84 308.28 216.74 304.18 209.69 308.28"></polygon>
      <polygon fill="#0e4a4d" points="218.27 303.28 225.37 307.38 232.41 303.29 225.31 299.19 218.27 303.28"></polygon>
      <polygon fill="#9dd1d7" points="226.64 298.28 233.74 302.37 240.78 298.28 233.68 294.18 226.64 298.28"></polygon>
      <polygon fill="#3dacaf" points="235.17 293.28 242.27 297.38 249.31 293.29 242.21 289.19 235.17 293.28"></polygon>
      <polygon fill="#0e4a4d" points="243.54 288.28 250.64 292.37 257.68 288.28 250.58 284.18 243.54 288.28"></polygon>
      <polygon fill="#9dd1d7" points="252.09 283.28 259.19 287.38 266.23 283.29 259.13 279.19 252.09 283.28"></polygon>
      <polygon fill="#0e4a4d" points="260.46 278.28 267.56 282.37 274.6 278.28 267.5 274.18 260.46 278.28"></polygon>
    </g>
    <g>
      <polygon fill="#9dd1d7" points="209.71 318.44 216.81 322.54 223.87 318.44 216.77 314.35 209.71 318.44"></polygon>
      <polygon fill="#0e4a4d" points="218.08 313.44 225.18 317.54 232.23 313.44 225.13 309.35 218.08 313.44"></polygon>
      <polygon fill="#60bfc2" points="226.66 308.44 233.76 312.54 240.8 308.45 233.7 304.35 226.66 308.44"></polygon>
      <polygon fill="#3dacaf" points="235.03 303.44 242.13 307.54 249.17 303.44 242.07 299.35 235.03 303.44"></polygon>
      <polygon fill="#60bfc2" points="243.56 298.44 250.66 302.54 257.7 298.45 250.6 294.35 243.56 298.44"></polygon>
      <polygon fill="#9dd1d7" points="251.93 293.44 259.03 297.54 266.07 293.44 258.97 289.35 251.93 293.44"></polygon>
      <polygon fill="#0e4a4d" points="260.48 288.44 267.58 292.54 274.62 288.45 267.52 284.35 260.48 288.44"></polygon>
      <polygon fill="#3dacaf" points="268.85 283.44 275.95 287.54 282.99 283.44 275.89 279.35 268.85 283.44"></polygon>
    </g>
    <g>
      <polygon fill="#60bfc2" points="218.08 323.45 225.18 327.55 232.23 323.45 225.13 319.35 218.08 323.45"></polygon>
      <polygon fill="#3dacaf" points="226.44 318.45 233.54 322.55 240.6 318.45 233.5 314.35 226.44 318.45"></polygon>
      <polygon fill="#9dd1d7" points="235.02 313.45 242.12 317.54 249.16 313.45 242.06 309.35 235.02 313.45"></polygon>
      <polygon fill="#0e4a4d" points="243.39 308.44 250.49 312.54 257.53 308.45 250.43 304.35 243.39 308.44"></polygon>
      <polygon fill="#9dd1d7" points="251.92 303.45 259.02 307.54 266.06 303.45 258.96 299.35 251.92 303.45"></polygon>
      <polygon fill="#0e4a4d" points="260.29 298.44 267.39 302.54 274.43 298.45 267.33 294.35 260.29 298.44"></polygon>
      <polygon fill="#9dd1d7" points="268.84 293.45 275.94 297.54 282.98 293.45 275.88 289.35 268.84 293.45"></polygon>
      <polygon fill="#9dd1d7" points="277.21 288.44 284.31 292.54 291.35 288.45 284.25 284.35 277.21 288.44"></polygon>
    </g>
    <g>
      <polygon fill="#3dacaf" points="226.44 328.34 233.54 332.44 240.6 328.34 233.5 324.24 226.44 328.34"></polygon>
      <polygon fill="#9dd1d7" points="234.81 323.34 241.91 327.44 248.96 323.34 241.86 319.24 234.81 323.34"></polygon>
      <polygon fill="#0e4a4d" points="243.39 318.33 250.49 322.43 257.53 318.34 250.43 314.24 243.39 318.33"></polygon>
      <polygon fill="#9dd1d7" points="251.76 313.33 258.86 317.43 265.9 313.34 258.8 309.24 251.76 313.33"></polygon>
      <polygon fill="#0e4a4d" points="260.29 308.33 267.39 312.43 274.43 308.34 267.33 304.24 260.29 308.33"></polygon>
      <polygon fill="#3dacaf" points="268.66 303.33 275.76 307.43 282.8 303.34 275.7 299.24 268.66 303.33"></polygon>
      <polygon fill="#60bfc2" points="277.21 298.33 284.31 302.43 291.35 298.34 284.25 294.24 277.21 298.33"></polygon>
      <polygon fill="#3dacaf" points="285.58 293.33 292.68 297.43 299.72 293.34 292.62 289.24 285.58 293.33"></polygon>
    </g>
    <g>
      <polygon fill="#9dd1d7" points="235.18 333.28 242.28 337.38 249.33 333.28 242.23 329.18 235.18 333.28"></polygon>
      <polygon fill="#0e4a4d" points="243.54 328.28 250.64 332.38 257.7 328.28 250.6 324.18 243.54 328.28"></polygon>
      <polygon fill="#3dacaf" points="252.12 323.27 259.22 327.37 266.26 323.28 259.16 319.18 252.12 323.27"></polygon>
      <polygon fill="#60bfc2" points="260.49 318.27 267.59 322.37 274.63 318.28 267.53 314.18 260.49 318.27"></polygon>
      <polygon fill="#9dd1d7" points="269.03 313.27 276.13 317.37 283.17 313.28 276.07 309.18 269.03 313.27"></polygon>
      <polygon fill="#0e4a4d" points="277.4 308.27 284.5 312.37 291.54 308.28 284.44 304.18 277.4 308.27"></polygon>
      <polygon fill="#9dd1d7" points="285.95 303.27 293.05 307.37 300.09 303.28 292.99 299.18 285.95 303.27"></polygon>
      <polygon fill="#0e4a4d" points="294.32 298.27 301.42 302.37 308.46 298.28 301.36 294.18 294.32 298.27"></polygon>
    </g>
    <g>
      <polygon fill="#60bfc2" points="243.54 338.28 250.64 342.38 257.7 338.28 250.6 334.18 243.54 338.28"></polygon>
      <polygon fill="#0e4a4d" points="251.91 333.28 259.01 337.38 266.06 333.28 258.96 329.18 251.91 333.28"></polygon>
      <polygon fill="#0e4a4d" points="260.49 328.28 267.59 332.38 274.63 328.29 267.53 324.19 260.49 328.28"></polygon>
      <polygon fill="#9dd1d7" points="268.86 323.27 275.96 327.37 283 323.28 275.9 319.18 268.86 323.27"></polygon>
      <polygon fill="#3dacaf" points="277.39 318.28 284.49 322.38 291.53 318.29 284.43 314.19 277.39 318.28"></polygon>
      <polygon fill="#0e4a4d" points="285.76 313.27 292.86 317.37 299.9 313.28 292.8 309.18 285.76 313.27"></polygon>
      <polygon fill="#60bfc2" points="294.31 308.28 301.41 312.38 308.45 308.29 301.35 304.19 294.31 308.28"></polygon>
      <polygon fill="#3dacaf" points="302.68 303.27 309.78 307.37 316.82 303.28 309.72 299.18 302.68 303.27"></polygon>
    </g>
  </g>
</svg>
