
<svg xmlns="http://www.w3.org/2000/svg" xmlns:xlink="http://www.w3.org/1999/xlink" viewBox="0 0 2000 2000" id="full-stack-developer-working-on-project">
  <defs>
    <clipPath id="clip-path">
      <ellipse cx="432.92" cy="1007.49" rx="21.71" ry="23.55" style="fill:none" transform="rotate(-27.68 432.894 1007.447)"></ellipse>
    </clipPath>
  </defs>
  <g style="isolation:isolate">
    <g id="Layer_1">
      <path d="M1671.35 1233s53.88-21.91 57.43-26 23.09-33.16 23.09-33.16l-10.06-23.09-70.46-.59-23.68 55.06ZM1167.48 1124.65s113.68 175.25 135 185.91 333.94-72.23 333.94-72.23l-29.61-42.63-258.15 17.76-86.44-150.39Z" style="fill:#ed867c"></path>
      <path d="m1750.95 1187.6 69.96-205.85-279.88-54.29-49.32 180.3-121.33 30.69-.39 10.2 168.43 92.84 212.53-53.89z" style="fill:#645470"></path>
      <path d="m1491.76 1107.58 246.89 76.22 12.3 3.8-212.53 53.89-168.43-92.84.39-10.2 121.33-30.69.05-.18z" style="fill:#645470;opacity:.53;mix-blend-mode:multiply"></path>
      <path d="m1370.38 1138.45 170.63 90.05 202.81-46.15 75.74-213.85" style="fill:none;stroke:#fff;stroke-linecap:round;stroke-linejoin:round;stroke-width:1.46px"></path>
      <path d="M1697.26 1181.61 1567.49 1207l-156.48-69.87 79.37-22.09 206.88 66.57z" style="fill:#645470"></path>
      <path d="m1801.57 990.44-256.56-57.6-45.24 169.47 238.54 73.55 63.26-185.42z" style="fill:#242638"></path>
      <path d="m1679.58 1185.25-201.77-66.63M1657.69 1189.52l-194.03-67.13M1635.54 1193.64l-185.91-67.07M1614.68 1198.34l-178.8-68.11M1591.74 1202.7l-168.56-69.03M1550.23 1199.53l125.82-24.75M1650.44 1166.73l-118.99 24.23M1626.92 1159.02l-113.73 23.65M1605.44 1152.44l-88.45 19.64M1584.53 1144.83l-84.01 20.08M1564.34 1138.82l-79.29 19.73M1547.02 1133.18l-86.86 25.99M1532.78 1128.97l-84.42 23.99M1515.72 1123.34l-81.3 24.37M1499.95 1118.29l-76.33 24.3" style="fill:none;stroke:#fff;stroke-linecap:round;stroke-linejoin:round;stroke-width:.73px"></path>
      <path d="m1544.88 932.84 257.48 57.2-5.52 16.19-255.61-59.72 3.65-13.67z" style="fill:#7197db"></path>
      <path d="M1783.8 996.49a4.32 4.32 0 1 1 4.2 4.51 4.32 4.32 0 0 1-4.2-4.51Z" style="fill:#e03d3d"></path>
      <path d="M1768.73 993.69a4.31 4.31 0 1 1 4.15 4.48 4.32 4.32 0 0 1-4.15-4.48Z" style="fill:#ffc359"></path>
      <path d="M1753.66 990.63a4.32 4.32 0 1 1 4.15 4.48 4.32 4.32 0 0 1-4.15-4.48Z" style="fill:#b4ac15"></path>
      <path d="m1577.94 963.94-31.59-9.12a.63.63 0 0 1-.34-.76.46.46 0 0 1 .53-.42l31.6 9.13a.63.63 0 0 1 .34.75c-.07.31-.31.48-.54.42ZM1572.52 988.26l-31.59-9.13a.63.63 0 0 1-.35-.75c.07-.31.31-.49.54-.42l31.59 9.12a.64.64 0 0 1 .35.76.48.48 0 0 1-.54.42ZM1565.42 1020.09l-31.6-9.12a.64.64 0 0 1-.34-.76.48.48 0 0 1 .54-.42l31.59 9.13a.62.62 0 0 1 .34.76c-.06.32-.3.48-.53.41ZM1564.8 1022.86l-31.59-9.12a.63.63 0 0 1-.34-.76c.06-.3.3-.49.54-.42l31.59 9.12a.65.65 0 0 1 .34.76c-.07.3-.34.49-.54.42ZM1564 1026.65l-31.59-9.12a.63.63 0 0 1-.34-.76c.07-.3.3-.48.54-.41l31.59 9.12a.62.62 0 0 1 .34.76c-.12.3-.35.48-.54.41ZM1563.34 1029.42l-31.6-9.12a.66.66 0 0 1-.34-.76c.07-.3.31-.49.54-.42l31.59 9.13a.63.63 0 0 1 .35.75c-.07.31-.31.49-.54.42ZM1594.42 1000.06l31.59 9.12a.64.64 0 0 1 .34.76c-.07.3-.3.49-.54.42l-31.59-9.13a.62.62 0 0 1-.34-.75c.12-.31.3-.48.54-.42Z" style="fill:#e03d3d"></path>
      <path d="m1666.87 989.63-69.31-20a.62.62 0 0 1-.34-.76c.07-.3.3-.48.54-.42l69.31 20a.63.63 0 0 1 .34.76c-.07.3-.3.49-.54.42Z" style="fill:#f2b84b"></path>
      <path d="m1777 1028-105.1-30.35a.62.62 0 0 1-.34-.75c.07-.31.3-.49.54-.42l105.1 30.35a.63.63 0 0 1 .34.76c-.06.3-.3.49-.54.41ZM1776.35 1031l-105.11-30.36a.62.62 0 0 1-.34-.75c.07-.31.3-.49.54-.42l105.1 30.35a.65.65 0 0 1 .35.76c-.07.27-.31.42-.54.42ZM1775.63 1034.18l-105.11-30.35a.64.64 0 0 1-.34-.76c.07-.3.3-.49.54-.42l105.11 30.35a.63.63 0 0 1 .34.76c-.07.31-.31.49-.54.42ZM1775 1037.14l-105.11-30.35a.65.65 0 0 1-.34-.76c.07-.3.3-.49.54-.42l105.08 30.39a.63.63 0 0 1 .34.75c-.07.25-.31.46-.51.39ZM1774.31 1040.1l-105.11-30.35a.65.65 0 0 1-.34-.76c.07-.31.3-.49.54-.42l105.11 30.36a.63.63 0 0 1 .34.75c-.07.32-.31.49-.54.42ZM1773.65 1043.06l-105.11-30.36a.63.63 0 0 1-.34-.75c.07-.31.3-.49.54-.42l105.11 30.35a.65.65 0 0 1 .34.76c-.07.36-.3.49-.54.42ZM1757.78 1076.23l-170.88-49.79a.64.64 0 0 1-.31-.75c.07-.3.3-.49.52-.43l170.89 49.79a.62.62 0 0 1 .31.75c-.09.31-.31.49-.53.43ZM1757.11 1079.19l-170.87-49.79a.62.62 0 0 1-.31-.75c.07-.31.29-.49.51-.43l170.88 49.78a.64.64 0 0 1 .31.75c-.07.31-.3.5-.52.44ZM1756.39 1082.4l-170.88-49.79a.62.62 0 0 1-.3-.75c.06-.3.29-.49.51-.42l170.87 49.79a.6.6 0 0 1 .31.74c-.07.31-.29.49-.51.43ZM1755.73 1085.36l-170.88-49.79a.62.62 0 0 1-.31-.75c.07-.31.29-.49.51-.43l170.88 49.79a.64.64 0 0 1 .31.75c-.07.31-.24.49-.51.43ZM1700.36 1024.77l-105.11-30.36a.63.63 0 0 1-.34-.76c.07-.3.3-.48.54-.41l105.11 30.35a.65.65 0 0 1 .34.76c-.07.3-.31.49-.54.42ZM1699.7 1027.73l-105.11-30.36a.63.63 0 0 1-.34-.76c.07-.3.3-.48.54-.41l105.11 30.35a.64.64 0 0 1 .34.76.48.48 0 0 1-.54.42Z" style="fill:#b4ac15"></path>
      <path d="m1646.71 989.35-50.31-14.53a.62.62 0 0 1-.34-.76.47.47 0 0 1 .54-.42l50.31 14.54a.62.62 0 0 1 .34.75c-.07.31-.25.49-.54.42ZM1666.33 992 1597 972a.63.63 0 0 1-.34-.75c.07-.31.3-.49.54-.42l69.31 20a.62.62 0 0 1 .34.75c-.04.35-.28.53-.52.42Z" style="fill:#f2b84b"></path>
      <path d="m1561.72 1036.69-31.6-9.13a.63.63 0 0 1-.34-.75c.07-.31.31-.49.54-.42l31.59 9.12a.63.63 0 0 1 .34.76c-.06.3-.25.49-.53.42Z" style="fill:#e03d3d"></path>
      <path d="m1650.65 1062.37-69.31-20a.65.65 0 0 1-.35-.76c.07-.31.31-.49.54-.42l69.32 20a.63.63 0 0 1 .34.76c-.07.31-.31.49-.54.42ZM1630.49 1062.1l-50.32-14.53a.66.66 0 0 1-.34-.76c.07-.31.31-.49.54-.42l50.32 14.53a.64.64 0 0 1 .34.76.48.48 0 0 1-.54.42ZM1650.11 1064.79l-69.31-20a.63.63 0 0 1-.34-.76c.06-.3.3-.49.54-.42l69.31 20a.64.64 0 0 1 .34.76c-.07.3-.3.48-.54.42ZM1683.69 1030.29l-50.31-14.53a.62.62 0 0 1-.34-.76c.06-.3.3-.48.53-.41l50.32 14.53a.63.63 0 0 1 .34.75c-.07.31-.3.49-.54.42ZM1703.31 1033l-69.31-20a.62.62 0 0 1-.34-.75c.07-.31.3-.49.54-.42l69.31 20a.62.62 0 0 1 .34.75c-.07.29-.3.47-.54.42Z" style="fill:#f2b84b"></path>
      <path d="m1592.59 1008.26 31.59 9.12a.63.63 0 0 1 .34.76c-.07.3-.3.49-.54.42l-31.59-9.13a.62.62 0 0 1-.34-.75c.07-.31.3-.49.54-.42Z" style="fill:#e03d3d"></path>
      <path d="m1681.86 1038.49-50.31-14.49a.62.62 0 0 1-.34-.76.45.45 0 0 1 .54-.41l50.31 14.53a.62.62 0 0 1 .34.75c-.07.27-.3.45-.54.38ZM1701.48 1041.18l-69.31-20a.63.63 0 0 1-.34-.75c.07-.31.3-.49.54-.42l69.31 20a.62.62 0 0 1 .34.75c-.02.31-.3.49-.54.42Z" style="fill:#f2b84b"></path>
      <path d="m1590.82 1016.17 31.59 9.12a.65.65 0 0 1 .35.76c-.07.3-.31.49-.54.42l-31.59-9.12a.65.65 0 0 1-.35-.76c.07-.31.31-.49.54-.42Z" style="fill:#e03d3d"></path>
      <path d="m1680.1 1046.4-50.32-14.53a.63.63 0 0 1-.34-.75c.07-.31.31-.49.54-.42l50.31 14.53a.64.64 0 0 1 .35.76c-.07.3-.31.48-.54.41ZM1699.72 1049.09l-69.31-20a.62.62 0 0 1-.34-.75c.06-.31.3-.49.54-.42l69.31 20a.63.63 0 0 1 .34.75c-.07.33-.26.49-.54.42Z" style="fill:#f2b84b"></path>
      <path d="m1559 1049-31.6-9.12a.64.64 0 0 1-.34-.76.48.48 0 0 1 .54-.42l31.59 9.13a.62.62 0 0 1 .34.75c-.08.28-.32.42-.53.42ZM1551.87 1080.81l-31.59-9.12a.64.64 0 0 1-.34-.76c.07-.3.31-.49.54-.42l31.59 9.13a.62.62 0 0 1 .34.75c-.06.31-.3.49-.54.42ZM1551.26 1083.58l-31.59-9.13a.63.63 0 0 1-.35-.75c.07-.31.31-.49.54-.42l31.6 9.12a.65.65 0 0 1 .34.76c-.07.3-.31.49-.54.42ZM1550.41 1087.37l-31.59-9.12a.63.63 0 0 1-.34-.76c.07-.3.3-.49.54-.42l31.59 9.13a.62.62 0 0 1 .34.75c-.07.31-.3.49-.54.42ZM1549.79 1090.14l-31.59-9.14a.63.63 0 0 1-.34-.75c.07-.31.31-.49.54-.42l31.6 9.17a.63.63 0 0 1 .34.76c-.07.24-.34.45-.55.38ZM1580.88 1060.78l31.59 9.12a.63.63 0 0 1 .34.76c-.07.3-.3.48-.54.42l-31.59-9.13a.62.62 0 0 1-.34-.76.45.45 0 0 1 .54-.41Z" style="fill:#e03d3d"></path>
      <path d="m1741.77 1136.32-168.42-49.17a.63.63 0 0 1-.3-.74c.07-.31.29-.49.51-.43l168.44 49.17a.63.63 0 0 1 .3.74c-.09.31-.3.49-.53.43ZM1741.11 1139.28l-168.42-49.17a.62.62 0 0 1-.3-.75c.06-.3.29-.49.5-.42l168.42 49.16a.62.62 0 0 1 .3.75c-.07.3-.29.49-.5.43ZM1740.38 1142.49 1572 1093.32a.62.62 0 0 1-.3-.74c.07-.31.29-.49.51-.43l168.42 49.17a.63.63 0 0 1 .3.74c-.11.31-.33.49-.55.43ZM1739.71 1145.45l-168.41-49.17a.63.63 0 0 1-.31-.75c.07-.3.29-.49.51-.42l168.42 49.16a.62.62 0 0 1 .3.75c-.07.3-.29.49-.51.43ZM1686.82 1085.49l-105.11-30.36a.63.63 0 0 1-.34-.76c.07-.3.3-.48.54-.42l105.1 30.36a.64.64 0 0 1 .35.76.48.48 0 0 1-.54.42ZM1686.16 1088.44l-105.11-30.35a.64.64 0 0 1-.34-.76c.07-.3.3-.49.54-.42l105.1 30.36a.64.64 0 0 1 .35.76c-.07.3-.31.48-.54.41Z" style="fill:#b4ac15"></path>
      <path d="m1670.15 1091-50.31-14.53a.64.64 0 0 1-.35-.76c.07-.3.31-.49.54-.42l50.32 14.53a.65.65 0 0 1 .34.76c-.07.31-.3.5-.54.42ZM1689.77 1093.7l-69.31-20a.62.62 0 0 1-.34-.76c.07-.3.3-.48.54-.42l69.31 20a.63.63 0 0 1 .34.76c-.07.3-.31.49-.54.42Z" style="fill:#f2b84b"></path>
      <path d="m1579.05 1069 31.59 9.12a.64.64 0 0 1 .34.76c-.07.3-.3.48-.54.42l-31.59-9.13a.62.62 0 0 1-.34-.76c.07-.32.3-.5.54-.41Z" style="fill:#e03d3d"></path>
      <path d="m1668.32 1099.21-50.32-14.53a.63.63 0 0 1-.34-.76.46.46 0 0 1 .53-.42l50.32 14.53a.65.65 0 0 1 .34.76c-.06.31-.29.49-.53.42ZM1687.94 1101.9l-69.31-20a.62.62 0 0 1-.34-.76c.07-.3.3-.48.54-.41l69.31 20a.63.63 0 0 1 .34.76c-.07.29-.3.51-.54.41Z" style="fill:#f2b84b"></path>
      <path d="m1577.28 1076.89 31.59 9.12a.64.64 0 0 1 .35.76c-.07.3-.31.49-.54.42l-31.59-9.13a.63.63 0 0 1-.35-.75c.07-.31.31-.49.54-.42Z" style="fill:#e03d3d"></path>
      <path d="m1666.56 1107.12-50.32-14.53a.63.63 0 0 1-.34-.76c.07-.3.3-.48.54-.42l50.31 14.54a.63.63 0 0 1 .35.75c-.1.3-.31.49-.54.42ZM1686.18 1109.81l-69.31-20a.63.63 0 0 1-.35-.75c.07-.31.31-.49.54-.42l69.32 20a.63.63 0 0 1 .34.75c-.07.31-.31.49-.54.42Z" style="fill:#f2b84b"></path>
      <path d="m1593.79 1246.62 46.51-.27a56.34 56.34 0 0 0 40.08-17c17-17.49 40.9-43 40.9-48.63 0-8.69-13.42-4.74-18.94 4.73s-28 20.92-28 20.92l-98 25.76ZM335.36 1233s-53.88-21.91-57.43-26-23.09-33.16-23.09-33.16l10.06-23.09 70.46-.59 23.64 55.01ZM839.23 1124.65s-113.68 175.25-135 185.91-333.94-72.23-333.94-72.23l29.61-42.63 258.15 17.76 86.44-150.39Z" style="fill:#ed867c"></path>
      <path d="M1115.93 940.31 1318 926.1s129.47-116.84 221-194.21l33.24 22.11s-162.63 254.2-232.1 266.83-148.42 20.53-148.42 20.53Z" style="fill:#ffa192"></path>
      <path d="M1520.13 747.68s15-39.47 24.47-52.89 45-40.26 49.74-47.37 11.05 4.74 6.32 11.05-26.06 34.74-27.63 38.69-23.69 49.73-23.69 49.73Z" style="fill:#ffa192"></path>
      <path d="M1562 769s17.07-10.27 28.92-15 66.61-25.26 66.61-25.26l-41.45-54.67-51.71 27-30.79 43.42Z" style="fill:#ffa192"></path>
      <path d="m1594.73 688.87 33.16-23.69s28.42-36.7 34.94-33.15-24.28 43.22-24.28 43.22l-9.77 11.84 15.1-8.29s32.56-46.18 40.85-41.44-29.6 53.28-29.6 53.28L1643 704.85l26.35-17.46s30.89-26.9 34.34-22.8c6.22 7.4-24.87 34.34-24.87 34.34l-29 21.62 23.39-9.18s18.06-9.48 21-6.52-10.37 13.62-17.47 16-49.44 18.95-49.44 18.95Z" style="fill:#ffa192"></path>
      <path d="M1071 914.45s144.77 8.89 207.53 13.62c0 0 14.21 90 9.47 107.76l-52.1 5.92Z" style="fill:#b23d29"></path>
      <path d="m887.52 945.05-202.1-14.21S556 814 464.37 736.63l-33.16 22.1s162.63 254.21 232.1 266.84 148.42 20.53 148.42 20.53Z" style="fill:#ffa192"></path>
      <path d="M483.32 752.42s-15-39.47-24.48-52.89-45-40.27-49.73-47.37-11.05 4.74-6.32 11.05 26 34.74 27.63 38.68 23.69 49.74 23.69 49.74Z" style="fill:#ffa192"></path>
      <path d="M441.48 773.73s-17.08-10.26-28.92-15S346 733.47 346 733.47l41.4-54.67 51.71 27 30.79 43.42Z" style="fill:#ffa192"></path>
      <path d="m408.71 693.61-33.15-23.69s-28.42-36.71-34.94-33.16S364.9 680 364.9 680l9.77 11.84-15.1-8.29s-32.57-46.19-40.85-41.46 29.6 53.29 29.6 53.29l12.14 14.21-26.35-17.47s-30.89-26.9-34.34-22.79c-6.22 7.4 24.87 34.34 24.87 34.34l29 21.61-23.39-9.18s-18.06-9.47-21-6.51 10.36 13.62 17.47 16 49.44 18.94 49.44 18.94Z" style="fill:#ffa192"></path>
      <path d="M932.42 919.19s-144.77 8.88-207.53 13.62c0 0-14.21 90-9.47 107.76l52.1 5.92Z" style="fill:#b23d29"></path>
      <path d="m1128.56 1376.09 69.48 127.89-165.79 30-148.42-11.06-30-52.1 36.32-48.94 238.41-45.79z" style="fill:#4d7999"></path>
      <path d="M913.65 1672.58s-2 11.23-21.64 21.39-71.55 14.14-92 18.6-89.2 13.07-104.3-15.33-9.44-64.24 10.52-72.24 58.74-2 82.6-3.36 88.17-15.11 96.23-14.83 28.59 65.77 28.59 65.77Z" style="fill:#ffc359"></path>
      <path d="M842.17 1705.83c-3.9-.52-92.29 8.07-108.83 3.38s-29.86-28.42-25.17-63.55c1.87-14 11.81-21.2 23.08-24.78-9.66.35-18.5 1.44-25.2 4.14-20 8-25.64 43.85-10.54 72.25s83.8 19.78 104.29 15.32c9.54-2.07 25.89-4 42.63-6.59a.3.3 0 0 0-.26-.17Z" style="fill:#fbdbd0"></path>
      <path d="M1030.67 1637.4s-73.42 11.84-93.94 22.89c-15.06 8.11-28.35 16.71-28.35 16.71s-43.6-30.79-26.91-68c0 0 91.75-29.92 101-41.13s48.2 69.53 48.2 69.53Z" style="fill:#ffa192"></path>
      <circle cx="782.12" cy="1682.75" r="4.33" style="fill:#333;stroke:#b4c9ff;stroke-miterlimit:10;stroke-width:2.01px" transform="rotate(-80.32 782.087 1682.731)"></circle>
      <path d="M780.44 1641.45a4.33 4.33 0 1 0-3.65 4.91 4.34 4.34 0 0 0 3.65-4.91ZM813.34 1678.17a4.33 4.33 0 1 0-3.66 4.91 4.33 4.33 0 0 0 3.66-4.91ZM807.38 1637.5a4.33 4.33 0 1 0-3.66 4.91 4.32 4.32 0 0 0 3.66-4.91ZM841 1674.12a4.33 4.33 0 1 0-3.66 4.91 4.32 4.32 0 0 0 3.66-4.91Z" style="fill:#333;stroke:#b4c9ff;stroke-miterlimit:10;stroke-width:2.01px"></path>
      <circle cx="830.74" cy="1634.07" r="4.33" style="fill:#333;stroke:#b4c9ff;stroke-miterlimit:10;stroke-width:2.01px" transform="rotate(-82.53 830.765 1634.078)"></circle>
      <path d="M867.57 1670.22a4.33 4.33 0 1 0-3.66 4.91 4.33 4.33 0 0 0 3.66-4.91Z" style="fill:#333;stroke:#b4c9ff;stroke-miterlimit:10;stroke-width:2.01px"></path>
      <path d="m767.68 1646.23 110.15-19.13c5.85-1 11.38 2.59 12.33 8.05l3.72 21.26c1 5.52-3.12 10.81-9.06 11.71L773 1685.18Z" style="fill:#dd992a"></path>
      <circle cx="857.32" cy="1630.18" r="4.33" style="fill:#333;stroke:#b4c9ff;stroke-miterlimit:10;stroke-width:2.01px" transform="rotate(-80.14 857.244 1630.147)"></circle>
      <path d="m862.93 1670.9-6.09-41.56-20.08 45.76-6.01-41.03-21.69 44.73-5.97-40.67-20.84 45.51-6.09-41.56M776.65 1643.55l32.41 35.25M803.94 1639.55l32.41 35.25M831.77 1635.47l32.41 35.25" style="fill:none;stroke:#fff;stroke-linecap:round;stroke-linejoin:round;stroke-width:4.02px"></path>
      <path d="M859.5 1647.78a29.67 29.67 0 0 1 20.94 21.77c.4 1.79.54 3.93-.79 5.21s-3.47 1.06-4.95.07a11.24 11.24 0 0 1-3.27-4.18 122.27 122.27 0 0 1-7.25-16c-.75-2-1.49-4.15-3-5.66-3.08-3-8.17-2.47-12.13-.8-12.35 5.2-19.48 18.78-20.88 32.1a6.69 6.69 0 0 0 .2 3.12c1.19 3.06 5.69 2.93 8.59 1.38 6.68-3.57 10.18-11 13.23-18q3.35-7.59 6.68-15.19c.94-2.13 2.12-4.49 4.35-5.17 1.85 4.9-1 10.18-3 15a52.24 52.24 0 0 0 .62 41.06" style="fill:none;stroke:#fff;stroke-linecap:round;stroke-linejoin:round;stroke-width:4.02px"></path>
      <path d="M706.23 1625c-20 8-25.64 43.85-10.55 72.25 9.68 18.2 41.36 21.19 68.26 19.83 2.51-51.68-6.61-81.57-13.33-96.15-16.74-.53-33.41-.35-44.38 4.07Z" style="fill:#fbdbd0"></path>
      <path d="M764 1710.56c-17.12 2.51-50.46-8.64-55.32-41.82s12.83-46.71 14.56-47.33" style="stroke:#fbdbd0;stroke-width:2.01px;stroke-linecap:round;stroke-linejoin:round;mix-blend-mode:multiply;fill:none"></path>
      <path d="M1111.69 1656.05s4.07 11.8 27 19.45 79.77 3.1 102.68 4.44 98.68-1 110.17-34.33-.76-71-23.71-76.33-63.87 7.78-89.89 10.43-97.91-1.33-106.58.34-19.67 76-19.67 76Z" style="fill:#ffc359"></path>
      <path d="M1194.64 1679.84c4.13-1.23 101.18-7 118.27-14.87s27.45-35.82 16.39-73c-4.41-14.85-16.38-20.92-29.17-22.87 10.5-1.27 20.25-1.59 27.95.19 23 5.28 35.19 43 23.7 76.33s-87.25 35.66-110.16 34.32c-10.67-.62-28.69 0-47.22.13a.32.32 0 0 1 .24-.23Z" style="fill:#fbdbd0"></path>
      <path d="M1045.82 1624s25 10.4 40.49 20.89a123.11 123.11 0 0 0 31.83 15.06s41.91-40.71 17.53-78c0 0-32.37-9.43-44.32-20s-45.53 62.05-45.53 62.05Z" style="fill:#ffa192"></path>
      <path d="M1250.91 1644.7a4.74 4.74 0 1 1 4.79 4.69 4.74 4.74 0 0 1-4.79-4.69ZM1250.44 1599.71a4.74 4.74 0 1 1 4.78 4.68 4.74 4.74 0 0 1-4.78-4.68ZM1221.11 1645a4.74 4.74 0 1 1 4.79 4.69 4.74 4.74 0 0 1-4.79-4.69ZM1220.64 1600a4.74 4.74 0 1 1 4.78 4.69 4.73 4.73 0 0 1-4.78-4.69ZM1190.52 1645.34a4.74 4.74 0 1 1 4.79 4.69 4.75 4.75 0 0 1-4.79-4.69ZM1190.05 1600.35a4.74 4.74 0 1 1 4.78 4.68 4.74 4.74 0 0 1-4.78-4.68ZM1161.12 1645.66a4.74 4.74 0 1 1 4.79 4.68 4.74 4.74 0 0 1-4.79-4.68Z" style="fill:#333;stroke:#b4c9ff;stroke-miterlimit:10;stroke-width:2.2px"></path>
      <path d="m1265.05 1602.71-122.37-1.94c-6.5-.11-11.86 4.74-12 10.8l-.4 23.63c-.1 6.14 5.21 11.15 11.8 11.12l123.82-.59Z" style="fill:#dd992a"></path>
      <path d="M1160.64 1600.66a4.74 4.74 0 1 1 4.79 4.69 4.74 4.74 0 0 1-4.79-4.69Z" style="fill:#333;stroke:#b4c9ff;stroke-miterlimit:10;stroke-width:2.2px"></path>
      <path d="m1166.25 1645.6-.49-45.98 29.51 46.07-.49-45.39 31.07 44.67-.48-45 30.29 45.67-.49-45.98M1254.9 1601.34l-29.05 43.63M1224.7 1601.66l-29.04 43.63M1193.91 1601.98l-29.04 43.64" style="fill:none;stroke:#fff;stroke-linecap:round;stroke-linejoin:round;stroke-width:4.41px"></path>
      <path d="M1166 1620a32.53 32.53 0 0 0-18.94 27.11c-.13 2 .09 4.35 1.74 5.5s3.94.56 5.37-.77a12.26 12.26 0 0 0 2.83-5.07 134.55 134.55 0 0 0 5.1-18.59c.47-2.31.9-4.74 2.32-6.63 2.82-3.77 8.41-4.06 13-2.93 14.24 3.52 24.26 17 28 31.16a7.35 7.35 0 0 1 .32 3.41c-.77 3.51-5.66 4.13-9 3-7.84-2.73-12.88-10.17-17.37-17.15l-9.81-15.3c-1.38-2.14-3.06-4.49-5.58-4.85-1.17 5.62 2.76 10.84 5.76 15.73a57.2 57.2 0 0 1 6.33 44.51" style="fill:none;stroke:#fff;stroke-linecap:round;stroke-linejoin:round;stroke-width:4.41px"></path>
      <path d="M1327.88 1569.28c22.95 5.28 35.19 43 23.71 76.33-7.37 21.32-41.11 30-70.44 33.06-11.52-55.46-6.74-89.33-2-106.24 18.07-3.43 36.11-6.06 48.73-3.15Z" style="fill:#fbdbd0"></path>
      <path d="M1280 1671.63c18.94-.2 53.1-17.93 52.71-54.64s-21.83-48.32-23.81-48.69" style="stroke-width:2.2px;stroke:#fbdbd0;stroke-linecap:round;stroke-linejoin:round;mix-blend-mode:multiply;fill:none"></path>
      <path d="M807.91 1361.55s-71.19-25.07-111.38-15-68.42 81.1-63.42 102 110.91 97.21 182.1 122.29 236.62 60.87 236.62 60.87l56.17-103.26Z" style="fill:#6f9ec6"></path>
      <path d="M1063.08 1491.63s-109.93 12-190.19 5.35" style="fill:none;stroke-linecap:round;stroke-linejoin:round;stroke-width:4.41px;stroke:#385f8e"></path>
      <path d="M1153 1367.73s117-15.42 161 7.33 60.81 105 29.69 135.62-380.49 170.53-380.49 170.53-49.78-29.58-60.94-103.42l224.94-129.86Z" style="fill:#8cbbea"></path>
      <path d="M921.82 1562s11.28 81.77 64.73 114.83l-31.16 12.41s-60.78-54.09-58.57-115.1Z" style="fill:#e3ecff"></path>
      <path d="M1150.74 1446s43.62-37.89 98-48.72M1216.92 1387.41s-40.62 30.43-52.59 45.45M963.82 1617.88s184.54-31.88 230.4-54.13" style="fill:none;stroke-linecap:round;stroke-linejoin:round;stroke-width:4.41px;stroke:#6f96cf"></path>
      <path d="M757.1 1364.46s40.86 19.8 49.26 46.43c0 0-57-36.83-84.17-38.55" style="fill:none;stroke-linecap:round;stroke-linejoin:round;stroke-width:4.41px;stroke:#385f8e"></path>
      <path d="M1278.56 1071.36s72.23 120 72.23 153.94-161.44 166.58-161.44 166.58l-34.73-93.16s79.34-82.5 84.86-86.44l-36.71-65.13ZM727.92 1086.75s-52.11 122-47.37 142.1 63.94 90 198.94 143.29l20.13-59.21s-98.28-93.55-103-93.55 20.13-61.58 20.13-61.58Z" style="fill:#ffa192"></path>
      <path d="M1051.2 910.31s113.68 20.53 156.31 55.26 102.63 146.84 102.63 146.84-39.48 55.26-98.68 56l-32.37-45s-17.37 66.32-17.37 123.16-12.63 78.94-12.63 78.94l-287.36-19 4.74-74.2-22.11-96.32-17.36 31.68s-91.57 3.16-131-34.73c0 0 66.32-151.58 102.63-176.84s164.21-42.63 164.21-42.63Z" style="fill:#d85a41"></path>
      <rect width="186.81" height="105.74" x="1183.16" y="627.98" rx="26.23" style="fill:#88b6ed"></rect>
      <path d="m1290.67 732.85-21.15 65.21-20.27-70.5 41.42 5.29z" style="fill:#88b6ed"></path>
      <path d="M1223.84 688.19v18.2h-10.07v-50.18H1233q8.65 0 13.61 4.41a16 16 0 0 1 0 23.19q-4.95 4.38-13.61 4.38Zm0-7.75h9.16c2.8 0 4.93-.77 6.38-2.29a8.2 8.2 0 0 0 2.17-5.85 8.53 8.53 0 0 0-2.16-6q-2.17-2.3-6.39-2.3h-9.13ZM1299.32 706.39h-10.07v-20.85h-20.44v20.85h-10.06v-50.18h10.06v21.57h20.44v-21.57h10.07ZM1318.62 688.19v18.2h-10.07v-50.18h19.2q8.65 0 13.61 4.41a16 16 0 0 1 0 23.19q-5 4.38-13.61 4.38Zm0-7.75h9.13c2.8 0 4.93-.77 6.38-2.29a8.2 8.2 0 0 0 2.17-5.85 8.53 8.53 0 0 0-2.16-6q-2.14-2.3-6.39-2.3h-9.13Z" style="fill:#fff"></path>
      <rect width="231.51" height="131.05" x="639.19" y="619.69" rx="32.5" style="fill:#8cbbea"></rect>
      <path d="m772.42 749.65-26.2 80.81-25.12-87.36 51.32 6.55z" style="fill:#8cbbea"></path>
      <path d="M685.79 654.15h11.57v40q0 8.6-5.27 13.69t-13.54 5.09q-9.19 0-14.56-4.54t-5.18-13.16l.09-.24h11.29q0 4.62 2.27 6.82a8.36 8.36 0 0 0 6.09 2.21 6.27 6.27 0 0 0 5.21-2.65 11.6 11.6 0 0 0 2-7.22ZM737.26 699.58h-18.78l-3.9 12.49h-12.13L722 654.15h11.9l19.45 57.92H741.2Zm-15.91-9.11h13.09l-6.44-20.4h-.24ZM775.57 696.36l.71 3.18h.24l.68-3.06 12.61-42.33h12.25l-19.69 57.92h-11.94l-19.65-57.92H763ZM834.87 699.58H816.1l-3.9 12.49h-12.13l19.53-57.92h11.89L851 712.07h-12.19ZM819 690.47h13.09l-6.4-20.4h-.24Z" style="fill:#fff"></path>
      <rect width="283.85" height="160.67" x="1032.2" y="304.94" rx="39.85" style="fill:#88b6ed"></rect>
      <path d="m1195.54 464.27-32.13 99.08-30.79-107.11 62.92 8.03z" style="fill:#88b6ed"></path>
      <path d="M1116.86 419.57h-12v-24.93h-24.44v24.93h-12v-60h12v25.8h24.44v-25.8h12ZM1168.53 368.84h-17.14v50.73h-12v-50.73h-16.89v-9.27h46.07ZM1206.15 403.79h.24l15.42-44.22h15.69v60h-12v-41h-.25l-14.83 41h-8.16l-14.83-41.09h-.25v41h-12v-60h15.78ZM1260.58 410.34h26.86v9.23h-38.89v-60h12Z" style="fill:#fff"></path>
      <rect width="212.8" height="120.45" x="881.21" y="85.51" rx="29.87" style="fill:#88b6ed"></rect>
      <path d="m1003.67 204.96-24.09 74.27-23.09-80.3 47.18 6.03z" style="fill:#88b6ed"></path>
      <path d="m963.05 155 .1.3q.2 11.64-7.09 18.22t-20.12 6.59q-13.08 0-21.12-8.41t-8-21.74V135.5q0-13.27 7.84-21.74t20.57-8.46q13.29 0 20.77 6.49t7.29 18.27l-.1.3H949q0-7-3.37-10.41t-10.41-3.42A11.76 11.76 0 0 0 925 121.8q-3.66 5.27-3.67 13.6v14.53q0 8.38 3.87 13.68a12.58 12.58 0 0 0 10.76 5.29q6.54 0 9.76-3.42t3.2-10.48ZM1001.54 138.5h18v12.58h-18v20.67h-13.78v-20.67h-18.07V138.5h18.07v-19.68h13.78ZM1057.31 138.5h18v12.58h-18v20.67h-13.78v-20.67h-18.07V138.5h18.07v-19.68h13.78Z" style="fill:#fff"></path>
      <path d="m1054.44 868.34 2.55 37.25c.56 8.22 6.42 6.27 14 8.86 0 0-6.89 52.31-66.5 52.31s-79.65-47.37-79.65-47.37c17.34-6.34 29.37-19.84 30.94-38.23l4.35-50.95Z" style="fill:#ffa192"></path>
      <path d="m1056.5 898.83-2.09-30.49-94.26-38.13-3 34.79c31.31 62.56 88.71 38.9 99.35 33.83Z" style="fill:#f97070"></path>
      <path d="M1087.79 787.79s14.24-7.18 19.42 1.07c5.49 8.74-1.43 32.63-25.57 30.09 0 .05-1.89-13.64 6.15-31.16Z" style="fill:#e88a80"></path>
      <path d="M1104.69 795.89s.11-7.12-7.52-6.67c-4.47.26-7.91 15.42-7.91 15.42s4.31.39 4.66 3.73a6.33 6.33 0 0 1-1.66 5.17s7.53-1.4 10.93-7" style="fill:none;stroke-linecap:round;stroke-linejoin:round;stroke:#f97070;stroke-width:1.49px"></path>
      <path d="M943.92 788s25.06-22.76 33.33-73.78c0 0 23.4-4.67 38.11-1.18s30.63 18.53 60.35 21 45.55-17.83 45.55-17.83a87.77 87.77 0 0 1-9.39-1.13s10.07-8.79 22.65-25.37c0 0-7.51.49-35.37-7.38 0 0 9.37-5.84 14.9-13.94a157.62 157.62 0 0 1-51.87-6.51c-28.33-8.4-65.48-18.9-85.1-8.77s-20.78 12.54-20.78 12.54 8.85-20.33 17.55-23.72c0 0-20.83 6.06-24.66 25.72 0 0-11.48.22-17.53 1.31s13.75 3.04 13.75 3.04-41.19 49-10.24 128.84Z" style="fill:#242638"></path>
      <path d="M1026.92 834.89a1 1 0 0 1-.76-.51c-1.27-2.32-1.11-4.07.58-6.48.9-1.29 2.51-1.29 3.8-1.28a9.4 9.4 0 0 0 1.08 0l1.16-.1a19.75 19.75 0 0 0 5.92-1.1c1.87-.78 3.76-2.52 3.77-4.67a8.82 8.82 0 0 0-.89-3.22l-.1-.24a57.78 57.78 0 0 1-2.78-34.83 1 1 0 0 1 1.18-.73 1 1 0 0 1 .73 1.17 55.76 55.76 0 0 0 2.68 33.64l.1.25a10.24 10.24 0 0 1 1 4c0 3-2.51 5.44-5 6.47a21.25 21.25 0 0 1-6.5 1.24l-1.14.1h-1.28c-.92 0-1.87 0-2.18.44-1.26 1.79-1.37 2.79-.47 4.42a1 1 0 0 1-.39 1.33 1 1 0 0 1-.51.1Z" style="fill:#bc5151"></path>
      <path d="M956.3 665.72s16.1-21.37 39.51-27 66.22 6.9 83.77 2.82c0 0-14.41 14.37-42 18.25a297 297 0 0 0-49.72 11.5ZM1091.25 731.11s4 36.81 3.81 56.1c0 0 12.83-51.45 7.14-66.55s-10.95 10.45-10.95 10.45ZM981.15 756.59c-2.8 3.29 6.53 3.83 12.36 3.67s17.65 5 22.42 5.43 7.84-7.14.18-9.84-27.52-8.02-34.96.74ZM1089.72 772.56c1.7 4-7.37 1.72-12.89-.17s-18.33-.5-23-1.49-5.36-9.14 2.76-9.45 28.63.55 33.13 11.11Z" style="fill:#242638"></path>
      <path d="M1045.62 850.27a77.23 77.23 0 0 1-48-4.73M1030.16 859.5s-6.67 4.58-17.63.24" style="fill:none;stroke-linecap:round;stroke-linejoin:round;stroke:#242638;stroke-width:1.82px"></path>
      <path d="M993 783.65c.69-7.47 3.68-13.31 6.67-13s4.85 6.56 4.16 14-3.67 13.3-6.66 13-4.82-6.53-4.17-14ZM1057.51 792.27c.8-7.46 3.87-13.25 6.85-12.93s4.76 6.62 4 14.08-3.87 13.25-6.85 12.94-4.79-6.62-4-14.09Z" style="fill:#242638"></path>
      <path d="M1003.77 799.62s-6.74 5-16.61.77M1054.39 805.82s5.58 6.41 13.95 4.39" style="fill:none;stroke-linecap:round;stroke-linejoin:round;stroke:#f97070;stroke-width:1.49px"></path>
      <path d="M981.72 766.66h34.48a6.19 6.19 0 0 1 6.19 6.19v14.52a23.79 23.79 0 0 1-23.79 23.79h-13.08a15.2 15.2 0 0 1-15.2-15.2v-17.9a11.4 11.4 0 0 1 11.4-11.4Z" style="fill:#b4c9ff;opacity:.42" transform="rotate(9.55 996.616 789.16)"></path>
      <path d="m992.81 812.72-10-1.68a18.19 18.19 0 0 1-14.9-20.93l2.64-15.67a14.09 14.09 0 0 1 16.22-11.55l32.69 5.5a8.49 8.49 0 0 1 7 9.77l-2 12.09a27.43 27.43 0 0 1-31.65 22.47Zm-6.65-46.25a10.46 10.46 0 0 0-12 8.57l-2.64 15.68a14.55 14.55 0 0 0 11.92 16.74l10 1.68a23.78 23.78 0 0 0 27.38-19.49l2-12.09a4.85 4.85 0 0 0-4-5.58Z" style="fill:#563136"></path>
      <path d="M1057.7 777.78h13.08a23.79 23.79 0 0 1 23.79 23.79v14.52a6.19 6.19 0 0 1-6.19 6.19h-34.48a11.4 11.4 0 0 1-11.4-11.4V793a15.2 15.2 0 0 1 15.2-15.2Z" style="fill:#b4c9ff;opacity:.42" transform="rotate(-170.45 1068.507 800.057)"></path>
      <path d="m1041.61 792.13 2-12.1a8.5 8.5 0 0 1 9.77-6.95l32.69 5.5a14.11 14.11 0 0 1 11.55 16.22l-2.62 15.68a18.19 18.19 0 0 1-20.93 14.9l-10-1.69a27.43 27.43 0 0 1-22.46-31.56Zm11.2-15.46a4.84 4.84 0 0 0-5.58 4l-2 12.09a23.79 23.79 0 0 0 19.49 27.38l10 1.68a14.54 14.54 0 0 0 16.74-11.91l2.64-15.68a10.44 10.44 0 0 0-8.56-12Z" style="fill:#563136"></path>
      <path d="M1044.13 790.18s-7.35-8.34-20.74-3.49" style="stroke-width:3.01px;stroke:#563136;stroke-miterlimit:10;fill:none"></path>
      <path d="m970.77 777.57-30.98-4.4" style="stroke-width:6.02px;stroke:#563136;stroke-miterlimit:10;fill:none"></path>
      <path d="M953.35 786.18s3.35-25.53-23.94-18.76c-10.83 2.69-14.14 31.66 14.63 38.9-.04 0 10.44-1.32 9.31-20.14Z" style="fill:#ffa192"></path>
      <path d="M926 776.16s4.15-10.23 18.34-4.46c6.71 2.72 5.76 15.42 5.76 15.42s-3.13-3.16-6.1 0 .48 7.36.38 8.37-12.54-.25-16.38-6.49" style="stroke-width:1.5px;stroke:#f97070;stroke-linecap:round;stroke-linejoin:round;fill:none"></path>
      <path d="M1089 793.36a5.66 5.66 0 1 0-6.52 4.64 5.67 5.67 0 0 0 6.52-4.64ZM1018.7 780.43a5.66 5.66 0 1 0-6.53 4.65 5.68 5.68 0 0 0 6.53-4.65Z" style="fill:#fff"></path>
      <path d="M1082.13 706.21c.15-.21.11-.16 0 0ZM1032.41 720.32c17.54-.39 35.64-3 49.36-13.72a1.8 1.8 0 0 0 .36-.39 165.22 165.22 0 0 1-55.13-15.44l34.68-14.57-53.39-18.2a95.91 95.91 0 0 1 20.08-19.8c-12.17-1.22-24-1.75-33 .41a58.08 58.08 0 0 0-13.37 5.13 85.25 85.25 0 0 1 15.62 4.89 50.83 50.83 0 0 0-11.7 16.19 192.5 192.5 0 0 0 41.85 11.83 43.16 43.16 0 0 1-23.93 15.86 95.45 95.45 0 0 0 28.47 13.39 44.91 44.91 0 0 1-15.42 7.56c4.81 1.45 9.85 4 15.52 6.86Z" style="fill:#fff;opacity:.25"></path>
      <rect width="401.04" height="277.77" x="814.36" y="1183.58" rx="19.77" style="fill:#242638"></rect>
      <circle cx="1023.17" cy="1319.25" r="30.79" style="fill:#fff" transform="rotate(-13.91 1022.892 1318.969)"></circle>
      <path d="M1272.68 1048.65c-26.9 13-76.43 33.37-143.23 45.94-90 16.92-229.75 22.47-395.18-41.82-3 5.75-5.84 11.44-8.6 17 170.75 66.79 315.21 60.91 408.21 43.28 70.35-13.33 121.47-34.66 148.89-48.12-3.18-5.26-6.57-10.72-10.09-16.28ZM787.15 966.9a185.76 185.76 0 0 0-12 15.59 609.57 609.57 0 0 0 136.15 42.72c80.79 15.26 197.94 19 314.08-42a176.29 176.29 0 0 0-13.83-14.2c-174.97 88.99-355.06 28.17-424.4-2.11Z" style="fill:#fbdbd0"></path>
      <rect width="186.52" height="105.58" x="742.56" y="330.47" rx="26.18" style="fill:#8cbbea"></rect>
      <path d="m849.89 435.17-21.11 65.1-20.24-70.38 41.35 5.28z" style="fill:#8cbbea"></path>
      <path d="m808.86 395.35.08.22q.13 8.55-5.21 13.4t-14.79 4.84q-9.62 0-15.52-6.18t-5.91-16V381q0-9.75 5.76-16t15.12-6.22q9.75 0 15.26 4.77T809 377l-.07.22h-10.42q0-5.13-2.47-7.65t-7.65-2.51a8.65 8.65 0 0 0-7.51 3.87 17.19 17.19 0 0 0-2.69 10v10.68A16.57 16.57 0 0 0 781 401.7a9.23 9.23 0 0 0 7.91 3.89q4.8 0 7.17-2.51c1.58-1.68 2.37-4.25 2.37-7.73ZM844.46 399.1a6.26 6.26 0 0 0-2.15-5c-1.43-1.24-3.94-2.42-7.54-3.52q-9.24-2.79-14-6.57a12.42 12.42 0 0 1-4.77-10.27 12.94 12.94 0 0 1 5.34-10.74q5.4-4.17 13.76-4.17 8.88 0 14.29 4.48a14 14 0 0 1 5.23 11.74l-.07.22h-10.39a7.78 7.78 0 0 0-2.42-6.15A9.89 9.89 0 0 0 835 367a8.91 8.91 0 0 0-6.12 1.91 6.2 6.2 0 0 0-2.17 4.88 5.33 5.33 0 0 0 2.35 4.46 31.23 31.23 0 0 0 8.11 3.68q8.8 2.5 13.43 6.52a13.33 13.33 0 0 1 4.57 10.55 12.72 12.72 0 0 1-5.36 10.83q-5.35 4-14.16 4a25.35 25.35 0 0 1-14.81-4.29q-6.18-4.29-6-12.81l.07-.22h10.39q0 4.74 2.79 7a11.7 11.7 0 0 0 7.56 2.24c2.86 0 5.05-.6 6.55-1.8a5.83 5.83 0 0 0 2.26-4.85ZM890.91 399.1a6.26 6.26 0 0 0-2.14-5c-1.43-1.24-3.95-2.42-7.54-3.52q-9.26-2.79-14-6.57a12.43 12.43 0 0 1-4.79-10.31 13 13 0 0 1 5.35-10.7q5.4-4.17 13.77-4.17 8.88 0 14.29 4.48a14 14 0 0 1 5.23 11.74l-.07.22h-10.39a7.81 7.81 0 0 0-2.42-6.15 9.91 9.91 0 0 0-6.79-2.14 9 9 0 0 0-6.13 1.91 6.22 6.22 0 0 0-2.16 4.88 5.33 5.33 0 0 0 2.35 4.46 31.13 31.13 0 0 0 8.1 3.68q8.82 2.5 13.44 6.52a13.33 13.33 0 0 1 4.62 10.57 12.75 12.75 0 0 1-5.36 10.83q-5.35 4-14.16 4a25.33 25.33 0 0 1-14.81-4.29q-6.18-4.29-6-12.81l.07-.22h10.39q0 4.74 2.79 7a11.7 11.7 0 0 0 7.56 2.24q4.29 0 6.55-1.8a5.82 5.82 0 0 0 2.25-4.85Z" style="fill:#fff"></path>
      <circle cx="1573.02" cy="437.43" r="169.73" style="fill:#f9cc85"></circle>
      <circle cx="419.63" cy="437.43" r="169.73" style="fill:#c4bc4e"></circle>
      <path d="m255.76 1187.6-76.67-217.74 286.59-42.4 49.32 180.3 121.33 30.69.39 10.2-168.43 92.84-212.53-53.89z" style="fill:#645470"></path>
      <path d="m514.95 1107.58-246.89 76.22-12.3 3.8 212.53 53.89 168.43-92.84-.39-10.2L515 1107.76l-.05-.18z" style="fill:#645470;opacity:.53;mix-blend-mode:multiply"></path>
      <path d="M636.33 1138.45 465.7 1228.5l-202.81-46.15-75.74-213.85" style="fill:none;stroke:#fff;stroke-linecap:round;stroke-linejoin:round;stroke-width:1.46px"></path>
      <path d="M309.45 1181.61 439.22 1207l156.49-69.87-79.38-22.09-206.88 66.57z" style="fill:#645470"></path>
      <path d="m197.77 972.28 263.93-39.44 45.24 169.47-238.54 73.55-70.63-203.58z" style="fill:#fff"></path>
      <path d="m327.13 1185.25 201.77-66.63M349.02 1189.52l194.03-67.13M371.17 1193.64l185.91-67.07M392.03 1198.34l178.8-68.11M414.97 1202.7l168.56-69.03M456.48 1199.53l-125.82-24.75M356.27 1166.73l118.99 24.23M379.79 1159.02l113.74 23.65M401.27 1152.44l88.45 19.64M422.18 1144.83l84.01 20.08M442.37 1138.82l79.29 19.73M459.69 1133.18l86.86 25.99M473.93 1128.97l84.42 23.99M490.99 1123.34l81.3 24.37M506.76 1118.29l76.33 24.3" style="fill:none;stroke:#fff;stroke-linecap:round;stroke-linejoin:round;stroke-width:.73px"></path>
      <path d="M461.83 932.84 197.9 972.28l7.83 22.58 259.75-48.35-3.65-13.67z" style="fill:#7197db"></path>
      <path d="M218.76 980.51a4.31 4.31 0 1 0-4.15 4.48 4.32 4.32 0 0 0 4.15-4.48Z" style="fill:#e03d3d"></path>
      <path d="M233.84 977.7a4.32 4.32 0 1 0-4.15 4.48 4.31 4.31 0 0 0 4.15-4.48Z" style="fill:#ffc359"></path>
      <path d="M248.9 974.64a4.31 4.31 0 1 0-4.14 4.48 4.32 4.32 0 0 0 4.14-4.48Z" style="fill:#b4ac15"></path>
      <path d="m502.56 1098.28-233.22 68.7-59.8-169.93 254.48-46.74 38.54 147.97z" style="fill:#37374f"></path>
      <path d="m233.37 1002-13.37 2.7a1.43 1.43 0 0 1-1.68-1.12 1.44 1.44 0 0 1 1.12-1.68l13.37-2.68a1.43 1.43 0 0 1 1.68 1.12 1.43 1.43 0 0 1-1.12 1.66ZM256.39 997.42l-13.39 2.67a1.43 1.43 0 0 1-1.68-1.12 1.44 1.44 0 0 1 1.12-1.68l13.37-2.67a1.43 1.43 0 0 1 1.68 1.12 1.43 1.43 0 0 1-1.1 1.68ZM277.69 993.15l-13.37 2.68a1.43 1.43 0 0 1-1.68-1.12 1.43 1.43 0 0 1 1.12-1.68l13.37-2.68a1.44 1.44 0 0 1 1.68 1.12 1.43 1.43 0 0 1-1.12 1.68ZM300.7 988.54l-13.37 2.68a1.43 1.43 0 0 1-1.68-1.12 1.44 1.44 0 0 1 1.12-1.68l13.37-2.68a1.43 1.43 0 0 1 1.68 1.12 1.43 1.43 0 0 1-1.12 1.68ZM324 983.87l-13.38 2.68a1.44 1.44 0 0 1-1.68-1.12 1.43 1.43 0 0 1 1.12-1.68l13.38-2.68a1.44 1.44 0 0 1 1.68 1.12 1.43 1.43 0 0 1-1.12 1.68ZM346 979.48l-13.37 2.68a1.43 1.43 0 0 1-1.73-1.16 1.43 1.43 0 0 1 1.12-1.68l13.37-2.68a1.43 1.43 0 0 1 1.68 1.12 1.43 1.43 0 0 1-1.07 1.72Z" style="fill:#fff"></path>
      <path d="m220.83 1015.65 15.89-3.84 40.87 110.96-15.89 3.84-40.87-110.96zM239.84 1020.66l-15.93 3.85M242.87 1028.9l-15.92 3.85M245.86 1037.02l-15.92 3.85M248.9 1045.26l-15.93 3.84M251.89 1053.38l-15.93 3.85M254.92 1061.61l-15.92 3.85M257.92 1069.74l-15.93 3.85M260.95 1077.97l-15.93 3.85M264.18 1086.76l-15.92 3.84M267.22 1094.99l-15.93 3.85M270.21 1103.11l-15.92 3.85M273.24 1111.35l-15.92 3.85" style="fill:none;stroke:#fff;stroke-miterlimit:10;stroke-width:.4px"></path>
      <path d="m397.44 1057.6 45.45-9.58 5.56 22.03-45.44 9.58-5.57-22.03zM444.38 1053.35l-45.59 9.6" style="fill:none;stroke:#fff;stroke-miterlimit:10;stroke-width:.42px"></path>
      <path d="m435.42 1061.36 4.84-1a1.12 1.12 0 0 0 .84-1.39 1.18 1.18 0 0 0-1.35-.87l-4.84 1a1.12 1.12 0 0 0-.84 1.39 1.18 1.18 0 0 0 1.35.87ZM436.74 1066.56l4.84-1a1.12 1.12 0 0 0 .84-1.39v-.05a1.19 1.19 0 0 0-1.36-.87l-4.84 1a1.12 1.12 0 0 0-.84 1.39 1.18 1.18 0 0 0 1.36.92ZM421.18 1064.36l4.85-1a1.12 1.12 0 0 0 .84-1.39 1.18 1.18 0 0 0-1.35-.87l-4.84 1a1.12 1.12 0 0 0-.84 1.39 1.18 1.18 0 0 0 1.34.87ZM422.5 1069.56l4.84-1a1.12 1.12 0 0 0 .84-1.39v-.05a1.18 1.18 0 0 0-1.35-.87l-4.84 1a1.12 1.12 0 0 0-.85 1.39 1.18 1.18 0 0 0 1.36.92ZM407.05 1067.33l4.84-1a1.11 1.11 0 0 0 .85-1.38v-.06a1.16 1.16 0 0 0-1.35-.86l-4.84 1a1.12 1.12 0 0 0-.84 1.39 1.16 1.16 0 0 0 1.34.91ZM408.37 1072.54l4.84-1a1.12 1.12 0 0 0 .84-1.39v-.05a1.19 1.19 0 0 0-1.36-.87l-4.84 1a1.12 1.12 0 0 0-.84 1.39v.05a1.18 1.18 0 0 0 1.36.87Z" style="fill:#fff"></path>
      <g style="clip-path:url(#clip-path)">
        <path d="m403.77 989.56 45.86-9.66 12.47 49.34-45.86 9.66-12.47-49.34z" style="fill:#b4ac15"></path>
        <path d="m450.36 982.85-17.32 25.2-20.18-24.7 37.5-.5z" style="fill:#f2b84b"></path>
        <path d="m433.04 1008.05-.11 30.95-30.59-23.47 5.49-26.63 8.02-5.91 17.19 25.06z" style="fill:#6f96cf"></path>
        <path d="m418.05 986.12 9.86 14.32-1.66 2.89-15.49-8.75 7.29-8.46z" style="fill:#e03d3d"></path>
        <path d="M422.94 1009.8c-1.53-6 1.84-11.9 7.51-13.09s11.52 2.73 13 8.76-1.84 11.91-7.51 13.1-11.47-2.73-13-8.77Z" style="fill:#37374f"></path>
      </g>
      <path d="m390.25 976.68 65.58-13.82 17.63 69.77-65.58 13.82-17.63-69.77zM457.73 970.36l-65.44 13.78" style="fill:none;stroke:#fff;stroke-miterlimit:10;stroke-width:.42px"></path>
      <path d="m443.05 970.27 10.53-2.22a.78.78 0 0 0 .59-1 .82.82 0 0 0-.94-.61l-10.54 2.22a.78.78 0 0 0-.59 1 .83.83 0 0 0 .95.61ZM424 974.29l10.54-2.22a.78.78 0 0 0 .59-1 .82.82 0 0 0-.95-.6l-10.53 2.22a.78.78 0 0 0-.59 1 .81.81 0 0 0 .94.6ZM407 977.86l10.54-2.22a.78.78 0 0 0 .58-1 .82.82 0 0 0-.94-.61l-10.54 2.22a.79.79 0 0 0-.59 1 .82.82 0 0 0 .95.61Z" style="fill:#fff"></path>
      <path d="m400.25 1033.4-1.44 14.97-2.31-3.63-3.06 6.05-2.96-1.79 3.08-6.11-4.28-.26 10.97-9.23z" style="stroke:#1a1a1a;stroke-width:.19px;fill:#fff;stroke-miterlimit:10"></path>
      <path d="m363.78 984.32-115.46 23.09 45 147.63 108.95-31.58-38.49-139.14z" style="fill:#fff"></path>
      <path d="M409.88 1040.87a2 2 0 0 1 1.42-2.47 2.15 2.15 0 0 1 2.46 1.66 2 2 0 0 1-1.42 2.47 2.16 2.16 0 0 1-2.46-1.66ZM417.21 1039.33a2 2 0 0 1 1.42-2.48 2.18 2.18 0 0 1 2.47 1.66 2 2 0 0 1-1.42 2.47 2.16 2.16 0 0 1-2.47-1.65Z" style="fill:none;stroke:#fff;stroke-linecap:round;stroke-linejoin:round;stroke-width:.85px;stroke-dasharray:5.1"></path>
      <path d="m447.09 1046.97 35.6-7.5 1.1 4.37 9.1 36.03-35.59 7.5-10.21-40.4zM483.52 1042.32l-35.7 7.52" style="fill:none;stroke:#fff;stroke-miterlimit:10;stroke-width:.42px"></path>
      <path d="M473.65 1053.16a4.09 4.09 0 0 1 3-5.15 4.5 4.5 0 0 1 5.13 3.45 4.08 4.08 0 0 1-3 5.15 4.5 4.5 0 0 1-5.13-3.45ZM464.9 1056.76a2.5 2.5 0 0 1 1.81-3.16 2.77 2.77 0 0 1 3.15 2.11 2.51 2.51 0 0 1-1.81 3.17 2.77 2.77 0 0 1-3.15-2.12ZM458.09 1059.46a1.37 1.37 0 0 1 1-1.72 1.5 1.5 0 0 1 1.71 1.16 1.35 1.35 0 0 1-1 1.71 1.49 1.49 0 0 1-1.71-1.15ZM477.41 1063.55l6.47-1.36 1.74 6.88-6.47 1.37-1.74-6.89zM467.69 1067.35l4.91-1.03 1.32 5.22-4.91 1.03-1.32-5.22zM461.31 1071.42l2.48-.53.66 2.64-2.48.53-.66-2.64z" style="fill:#fff"></path>
      <path d="m491.68 1075.05-35.38 7.45" style="fill:none;stroke:#fff;stroke-miterlimit:10;stroke-width:.42px"></path>
      <path d="m253.85 1025.57-5.53-18.16 115.46-23.09 4.54 15.59-114.47 25.66z" style="fill:#6f96cf"></path>
      <path d="m278.32 1084.38-18.55-56.84 56.05-11.84 17.37 54.47-54.87 14.21z" style="fill:#b4ac15"></path>
      <path d="m338.32 1074.12-16.97-60.39 42.63-9.87 30 111.71-97.1 26.84-16.98-53.29 58.42-15z" style="fill:#d0dcff"></path>
      <ellipse cx="304.28" cy="1101.7" rx="12.73" ry="14.36" style="fill:#6f96cf" transform="rotate(-17.55 304.154 1101.41)"></ellipse>
      <path d="M348.68 1087.8c-2.39-7.56-9.76-12-16.46-9.85s-10.2 10-7.81 17.52 9.76 12 16.46 9.86 10.2-9.97 7.81-17.53Z" style="fill:#f2b84b"></path>
      <ellipse cx="366.74" cy="1082.76" rx="12.73" ry="14.36" style="fill:#e03d3d" transform="rotate(-17.54 366.876 1083.04)"></ellipse>
      <path d="m412.92 1246.62-46.51-.27a56.34 56.34 0 0 1-40.08-17c-17-17.49-40.9-43-40.9-48.63 0-8.69 13.42-4.74 18.94 4.73s28 20.92 28 20.92l98 25.76Z" style="fill:#ed867c"></path>
      <path d="M334.29 398.74h-20.24v21.9h-10.57v-52.72H338v8.15h-23.95v14.52h20.24ZM355.3 399.57v21.07h-10.58v-52.72H363q9 0 14.1 4.12t5.09 11.45a11.6 11.6 0 0 1-2.15 7 15 15 0 0 1-6.29 4.76 11.33 11.33 0 0 1 6.72 4.6 14.54 14.54 0 0 1 2.05 8v3.88a19.64 19.64 0 0 0 .59 4.62 6.33 6.33 0 0 0 2.05 3.56v.76h-10.9a5.83 5.83 0 0 1-1.86-3.84 33.33 33.33 0 0 1-.42-5.17v-3.76a8.41 8.41 0 0 0-2.15-6.14 8.18 8.18 0 0 0-6.1-2.19Zm0-8.15h7.49c3 0 5.18-.62 6.63-1.88a7 7 0 0 0 2.17-5.57 7.66 7.66 0 0 0-2.19-5.76q-2.19-2.15-6.43-2.14h-7.67ZM434.62 399q0 9.74-6.11 16.05t-15.94 6.32q-9.76 0-15.85-6.33t-6.09-16v-9.49q0-9.66 6.07-16t15.8-6.36q9.81 0 16 6.36a22.1 22.1 0 0 1 6.15 16Zm-10.53-9.56a16 16 0 0 0-3.08-10.1 10.2 10.2 0 0 0-8.51-3.95 9.86 9.86 0 0 0-8.34 3.95 16.29 16.29 0 0 0-3 10.1V399a16.42 16.42 0 0 0 3 10.21 10 10 0 0 0 8.4 3.95 10.11 10.11 0 0 0 8.48-3.95 16.31 16.31 0 0 0 3-10.21ZM485.61 420.64H475l-21.25-35.56h-.22v35.52H443v-52.68h10.57l21.25 35.52h.22v-35.52h10.58ZM531 376.07h-15v44.57h-10.63v-44.57h-14.84v-8.15H531ZM379 486.45h-19.59v15.07h23.24v8.11h-33.82v-52.72h33.75v8.14h-23.17v13.26H379ZM432.69 509.63h-10.57l-21.26-35.56h-.21v35.52h-10.58v-52.68h10.58l21.25 35.52h.22v-35.52h10.57ZM442.39 509.63v-52.72h18.39q9.68 0 15.94 6.17t6.28 15.84v8.73q0 9.71-6.26 15.84t-15.94 6.14ZM453 465.05v36.47h7.82a10.3 10.3 0 0 0 8.4-3.9 15.19 15.19 0 0 0 3.19-10v-8.8a15.07 15.07 0 0 0-3.19-9.92 10.34 10.34 0 0 0-8.4-3.88ZM1481.67 420.64v-52.72h17.27q9.3 0 14.52 3.64t5.21 10.81a11.19 11.19 0 0 1-7.38 10.79 11.32 11.32 0 0 1 7.42 4.28 12.78 12.78 0 0 1 2.5 7.85q0 7.57-5 11.46t-14.16 3.89Zm10.57-30.64h7.06a10.57 10.57 0 0 0 6.52-1.74 6 6 0 0 0 2.28-5.07 6.32 6.32 0 0 0-2.3-5.39q-2.29-1.74-6.86-1.74h-6.7Zm0 7.31v15.21h9.81c2.81 0 4.94-.61 6.41-1.83a6.58 6.58 0 0 0 2.21-5.41 7.75 7.75 0 0 0-2.17-5.9q-2.18-2.07-6.55-2.07ZM1556.4 409.27h-17.09l-3.54 11.37h-11l17.78-52.72h10.83l17.7 52.72h-11Zm-14.48-8.27h11.91l-5.83-18.59h-.21ZM1615.24 403.19l.07.22q.15 8.43-5.14 13.21t-14.59 4.78q-9.48 0-15.32-6.1t-5.82-15.76v-10.47q0-9.63 5.68-15.77t14.92-6.14q9.63 0 15.06 4.71t5.28 13.25l-.07.22H1605c0-3.38-.81-5.89-2.45-7.55s-4.14-2.48-7.54-2.48a8.52 8.52 0 0 0-7.41 3.82 16.92 16.92 0 0 0-2.6 9.87v10.54a16.36 16.36 0 0 0 2.81 9.91 9.09 9.09 0 0 0 7.8 3.84q4.74 0 7.08-2.48c1.56-1.65 2.33-4.19 2.33-7.62ZM1637.33 398.63h-3.88v22h-10.57v-52.71h10.57v21.55h3l14.45-21.55h13.07l-18.25 24.52 19.66 28.2h-13.47ZM1534.72 486.45h-19.56v15.07h23.25v8.11h-33.82v-52.72h33.75v8.14h-23.18v13.26h19.56ZM1588.45 509.63h-10.58l-21.25-35.56h-.22v35.52h-10.57v-52.68h10.57l21.26 35.52h.21v-35.52h10.58ZM1598.15 509.63v-52.72h18.39q9.68 0 15.94 6.17t6.26 15.84v8.73q0 9.71-6.26 15.84t-15.94 6.14Zm10.57-44.58v36.47h7.82a10.3 10.3 0 0 0 8.4-3.9 15.19 15.19 0 0 0 3.19-10v-8.8a15.07 15.07 0 0 0-3.19-9.92 10.34 10.34 0 0 0-8.4-3.88Z" style="fill:#fff"></path>
      <ellipse cx="1036.99" cy="1831.6" rx="511.57" ry="82.89" style="fill:#dfeaf4"></ellipse>
    </g>
  </g>
</svg>
