<svg xmlns="http://www.w3.org/2000/svg" xmlns:xlink="http://www.w3.org/1999/xlink" enable-background="new 0 0 500 500" viewBox="0 0 500 500" id="male-video-editor">
  <g id="obj">
    <polygon fill="#31374c" points="441.51 385.19 382.39 340.93 49.42 369.85 30.56 362.06 29.2 371.61 100.55 432.26 454.82 395.15 456.18 385.61"></polygon>
    <polygon fill="#fff" points="32.25 362.6 383.56 332.08 454.38 385.11 102.13 422"></polygon>
    <path fill="#31374c" d="M383.36,332.78l69.22,51.83l-350.23,36.68l-68.42-58.16L383.36,332.78 M383.76,331.38l-353.2,30.68
						l71.35,60.65l354.27-37.1L383.76,331.38L383.76,331.38z"></path>
    <polygon fill="#31374c" points="322.11 382.55 300.63 366.46 195.85 375.56 177.27 374.53 176.23 377.26 201.36 398.63 326.14 385.56 327.18 382.82"></polygon>
    <polygon fill="#e6edfc" points="177.27 374.53 202.4 395.89 327.18 382.83 301.67 363.73"></polygon>
    <path fill="#e6edfc" d="M192.58,292.81c-19.12,0.56-38.36,5.73-55.27,13.61c-24.58,11.44-52.24,30.54-80.27,18.14
			c-36.83-16.3-0.51-66.65-5.77-93.92c-4.01-20.76-15.11-39.29-21.82-59.16c-10-29.62-3.62-59.7,26.61-73.8
			c17.72-8.27,38.22-8.49,57.54-5.48c34.48,5.38,67.04,22.03,101.75,8.8c23.66-9.02,51.35-23.2,72.76-1.66
			c22.63,22.77,20.94,62.5,23.43,92.09c2.48,26.58,13.7,51.46,20.15,77.12c7.82,31.17-21.59,56.78-51.61,51.05
			c-12.6-2.41-24.08-8.65-35.57-14.35C228.01,297.09,211.08,292.27,192.58,292.81z"></path>
    <path fill="#e6edfc" d="M164.37,80.53l20.52,19.65c0.62,0.59,1.64,0.15,1.64-0.7V60.18c0-0.86-1.03-1.29-1.64-0.7l-20.52,19.65
				C163.97,79.51,163.97,80.15,164.37,80.53z"></path>
    <path fill="#e6edfc" d="m174.05 83.06-11.45 7.07c-.47.29-1.07-.05-1.07-.6V70.17c0-.56.61-.89 1.08-.59l11.42 7.29c.2.13.32.35.32.59l.03 5.01C174.38 82.7 174.26 82.93 174.05 83.06zM192.15 95.46c-.48 0-.87-.39-.87-.87s.39-.87.87-.87c7.66 0 13.89-6.23 13.89-13.89 0-7.66-6.23-13.89-13.89-13.89-.48 0-.87-.39-.87-.87 0-.48.39-.87.87-.87 8.62 0 15.63 7.01 15.63 15.63C207.79 88.45 200.77 95.46 192.15 95.46z"></path>
    <path fill="#e6edfc" d="M192.15,91.14c-0.48,0-0.87-0.39-0.87-0.87c0-0.48,0.39-0.87,0.87-0.87c5.28,0,9.58-4.3,9.58-9.58
						c0-5.28-4.3-9.58-9.58-9.58c-0.48,0-0.87-0.39-0.87-0.87c0-0.48,0.39-0.87,0.87-0.87c6.24,0,11.32,5.08,11.32,11.32
						C203.47,86.07,198.39,91.14,192.15,91.14z"></path>
    <path fill="#e6edfc" d="M192.15,87.12c-0.48,0-0.87-0.39-0.87-0.87c0-0.48,0.39-0.87,0.87-0.87c3.06,0,5.55-2.49,5.55-5.55
						c0-3.06-2.49-5.55-5.55-5.55c-0.48,0-0.87-0.39-0.87-0.87c0-0.48,0.39-0.87,0.87-0.87c4.02,0,7.29,3.27,7.29,7.3
						C199.45,83.85,196.18,87.12,192.15,87.12z"></path>
    <g>
      <path fill="#ba3936" d="M100.01,219.77h-3.87c-0.68-3.02-1.85-5.86-3.39-8.44l2.85-2.85c1.01-1.01,1.01-2.64,0-3.65l-6.25-6.25
				c-1.01-1.01-2.64-1.01-3.65,0l-2.74,2.74c-2.55-1.6-5.37-2.82-8.36-3.58v-4.03c0-1.43-1.16-2.58-2.58-2.58h-8.83
				c-1.43,0-2.58,1.16-2.58,2.58v3.88c-3.02,0.68-5.86,1.85-8.45,3.38l0,0l-2.85-2.85c-1.01-1.01-2.64-1.01-3.65,0l-6.25,6.25
				c-1.01,1.01-1.01,2.64,0,3.65l2.75,2.75c-1.61,2.55-2.82,5.36-3.58,8.36h-4.03c-1.43,0-2.58,1.16-2.58,2.58v8.83
				c0,1.43,1.16,2.58,2.58,2.58h3.89c0.67,3.02,1.83,5.85,3.38,8.44l-2.85,2.85c-1.01,1.01-1.01,2.64,0,3.65l6.25,6.25
				c1.01,1.01,2.64,1.01,3.65,0l2.74-2.74c0,0,0,0,0,0c2.55,1.6,5.36,2.82,8.36,3.58c0,0,0,0,0,0v4.02c0,1.43,1.16,2.58,2.58,2.58
				h8.83c1.43,0,2.58-1.16,2.58-2.58v-3.88c0,0,0,0,0,0c3.02-0.68,5.86-1.84,8.44-3.38c0,0,0,0,0,0l2.85,2.85
				c1.01,1.01,2.64,1.01,3.65,0l6.25-6.25c1.01-1.01,1.01-2.64,0-3.65l-2.74-2.74c0,0,0,0,0,0c1.61-2.55,2.83-5.36,3.59-8.36h4.02
				c1.43,0,2.58-1.16,2.58-2.58v-8.83C102.59,220.93,101.44,219.77,100.01,219.77z M67.28,242.88c-9.07,0-16.43-7.35-16.43-16.43
				s7.36-16.43,16.43-16.43c9.08,0,16.44,7.35,16.44,16.43S76.36,242.88,67.28,242.88z"></path>
      <path fill="#dd5e57" d="M101.67,218H97.8c-0.68-3.02-1.85-5.86-3.39-8.44l2.85-2.85c1.01-1.01,1.01-2.64,0-3.65l-6.25-6.25
				c-1.01-1.01-2.64-1.01-3.65,0l-2.74,2.74c-2.55-1.6-5.37-2.82-8.36-3.58v-4.03c0-1.43-1.16-2.58-2.58-2.58h-8.83
				c-1.43,0-2.58,1.16-2.58,2.58v3.88c-3.02,0.68-5.86,1.85-8.45,3.38l0,0l-2.85-2.85c-1.01-1.01-2.64-1.01-3.65,0l-6.25,6.25
				c-1.01,1.01-1.01,2.64,0,3.65l2.75,2.75c-1.61,2.55-2.82,5.36-3.58,8.36h-4.03c-1.43,0-2.58,1.16-2.58,2.58v8.83
				c0,1.43,1.16,2.58,2.58,2.58h3.89c0.67,3.02,1.83,5.85,3.38,8.44l-2.85,2.85c-1.01,1.01-1.01,2.64,0,3.65l6.25,6.25
				c1.01,1.01,2.64,1.01,3.65,0l2.74-2.74c0,0,0,0,0,0c2.55,1.6,5.36,2.82,8.36,3.58c0,0,0,0,0,0v4.02c0,1.43,1.16,2.58,2.58,2.58
				h8.83c1.43,0,2.58-1.16,2.58-2.58v-3.88c0,0,0,0,0,0c3.02-0.68,5.86-1.84,8.44-3.38c0,0,0,0,0,0l2.85,2.85
				c1.01,1.01,2.64,1.01,3.65,0l6.25-6.25c1.01-1.01,1.01-2.64,0-3.65l-2.74-2.74c0,0,0,0,0,0c1.61-2.55,2.83-5.36,3.59-8.36h4.02
				c1.43,0,2.58-1.16,2.58-2.58v-8.83C104.25,219.16,103.1,218,101.67,218z M68.94,241.11c-9.07,0-16.43-7.35-16.43-16.43
				s7.36-16.43,16.43-16.43c9.08,0,16.44,7.35,16.44,16.43S78.02,241.11,68.94,241.11z"></path>
    </g>
    <g>
      <path fill="#bbbaf4" d="M413.08,168.34c-7.05-21.69-30.34-33.56-52.03-26.51c-21.69,7.04-33.56,30.34-26.51,52.03
				c7.05,21.69,30.34,33.56,52.03,26.51C408.26,213.32,420.13,190.03,413.08,168.34z M373.81,143.93c5.65,0,10.23,4.58,10.23,10.23
				c0,5.65-4.58,10.23-10.23,10.23s-10.23-4.58-10.23-10.23C363.58,148.51,368.16,143.93,373.81,143.93z M338.46,169.61
				c1.74-5.38,7.52-8.32,12.89-6.57c5.37,1.75,8.32,7.52,6.57,12.9c-1.75,5.37-7.52,8.32-12.9,6.57
				C339.65,180.76,336.71,174.99,338.46,169.61z M366.25,208.91c-3.32,4.57-9.72,5.59-14.29,2.27c-4.57-3.32-5.59-9.72-2.27-14.3
				c3.32-4.57,9.72-5.59,14.3-2.26C368.56,197.94,369.58,204.34,366.25,208.91z M395.66,211.17c-4.57,3.32-10.97,2.31-14.3-2.27
				c-3.32-4.57-2.31-10.97,2.27-14.29c4.57-3.32,10.97-2.31,14.29,2.26C401.25,201.45,400.23,207.85,395.66,211.17z M402.59,182.5
				c-5.37,1.75-11.15-1.19-12.89-6.57c-1.75-5.38,1.19-11.15,6.57-12.9c5.37-1.75,11.15,1.19,12.89,6.57
				C410.91,174.99,407.97,180.76,402.59,182.5z"></path>
      <path fill="#e6edfc" d="M410.61,165.86c-7.05-21.69-30.34-33.56-52.03-26.51c-21.69,7.04-33.56,30.34-26.51,52.03
				c7.05,21.69,30.34,33.56,52.03,26.51C405.78,210.85,417.65,187.55,410.61,165.86z M371.34,141.45c5.65,0,10.23,4.58,10.23,10.23
				c0,5.65-4.58,10.23-10.23,10.23s-10.23-4.58-10.23-10.23C361.1,146.03,365.68,141.45,371.34,141.45z M335.98,167.14
				c1.74-5.38,7.52-8.32,12.89-6.57c5.37,1.75,8.32,7.52,6.57,12.9c-1.75,5.37-7.52,8.32-12.9,6.57
				C337.18,178.28,334.24,172.51,335.98,167.14z M363.78,206.43c-3.32,4.57-9.72,5.59-14.29,2.27c-4.57-3.32-5.59-9.72-2.27-14.3
				c3.32-4.57,9.72-5.59,14.3-2.26C366.09,195.46,367.1,201.86,363.78,206.43z M393.19,208.7c-4.57,3.32-10.97,2.31-14.3-2.27
				c-3.32-4.57-2.31-10.97,2.27-14.29c4.57-3.32,10.97-2.31,14.29,2.26C398.77,198.98,397.76,205.37,393.19,208.7z M400.12,180.03
				c-5.37,1.75-11.15-1.19-12.89-6.57c-1.75-5.38,1.19-11.15,6.57-12.9c5.37-1.75,11.15,1.19,12.89,6.57
				C408.44,172.51,405.49,178.28,400.12,180.03z"></path>
      <circle cx="371.34" cy="178.62" r="13.4" fill="#bbbaf4"></circle>
      <circle cx="371.34" cy="178.62" r="10.23" fill="#fff"></circle>
    </g>
    <g>
      <polygon fill="#31374c" points="196.94 361.52 245.23 358.58 259.35 286.94 211.06 289.89"></polygon>
      <path fill="#31374c" d="m163.3 367.92 116.08-7.08-.12-1.99c-.14-2.36-2.17-4.15-4.53-4.01l-107.55 6.56c-2.36.14-4.15 2.17-4.01 4.53L163.3 367.92zM65.38 158.43l33.9 168.32c.78 3.86 4.54 7 8.39 7.02l259.94-15.06c3.85.02 6.34-3.1 5.57-6.95l-33.9-151.95c-.78-3.86-4.52-7-8.37-7.02l-259.96-1.31C67.09 151.46 64.6 154.57 65.38 158.43z"></path>
      <path fill="#31374c" d="M65.38,158.43l32.13,159.54l273.9-14.99l-32.13-143.17c-0.78-3.86-4.53-7-8.37-7.02l-259.97-1.31
				C67.09,151.46,64.6,154.57,65.38,158.43z"></path>
      <g>
        <path fill="#fff" stroke="#31374c" stroke-miterlimit="10" stroke-width="1.477" d="M71.49,152.39l33.9,168.32c0.78,3.86,4.54,7,8.39,7.02l259.94-15.06c3.85,0.02,6.34-3.1,5.57-6.95
					l-33.9-151.95c-0.78-3.86-4.52-7-8.37-7.02l-259.96-1.31C73.19,145.41,70.71,148.52,71.49,152.39z"></path>
        <path fill="#6359c9" d="M71.49,152.39l32.13,159.54l273.9-14.99l-32.13-143.17c-0.78-3.86-4.53-7-8.37-7.02l-259.97-1.31
					C73.19,145.41,70.71,148.52,71.49,152.39z"></path>
        <polygon fill="#6359c9" points="78.22 152.42 108.86 304.58 369.29 289.53 338.65 153.73"></polygon>
      </g>
    </g>
    <g>
      <path fill="#fff" stroke="#31374c" stroke-miterlimit="10" stroke-width="1.477" d="M366.07,277.45l-239.05,12.99c-2.57,0.14-4.85-1.63-5.35-4.15L87.82,115.42c-0.64-3.25,1.89-6.25,5.2-6.17
				l240.72,6.18c2.39,0.06,4.42,1.75,4.92,4.09l32.18,151.7C371.5,274.32,369.24,277.28,366.07,277.45z"></path>
      <polygon fill="#e6edfc" points="366.01 270.72 126.94 282.92 117.9 237.35 357.39 230"></polygon>
      <polygon fill="#31374c" points="356.11 223.92 187.72 228.58 165.21 117.33 334.34 121.2"></polygon>
      <polygon fill="#fff" points="355.69 238.44 190.88 244.17 190.47 242.13 355.29 236.55"></polygon>
      <path fill="#fff" d="M305.56,140.75l-106.31-1.4l12.43,60.9l106.05-1.58L305.56,140.75z M301.64,146.3l1.32,6.32l-6.66-0.05
					l-1.33-6.34L301.64,146.3z M287.82,146.16l1.33,6.36l-6.75-0.05l-1.33-6.38L287.82,146.16z M273.82,146.01l1.33,6.4l-6.84-0.05
					l-1.33-6.42L273.82,146.01z M259.63,145.87l1.34,6.44l-6.93-0.05l-1.34-6.46L259.63,145.87z M210.02,151.93l-1.35-6.6l7.22,0.08
					l1.35,6.58L210.02,151.93z M218.67,194.23l-1.36-6.63l7.21-0.07l1.35,6.61L218.67,194.23z M224.9,152.04l-1.35-6.55l7.13,0.07
					l1.34,6.53L224.9,152.04z M233.52,194.05l-1.35-6.58l5.86-0.06l1.35,6.56L233.52,194.05z M239.57,152.15l-1.34-6.51l7.03,0.07
					l1.34,6.49L239.57,152.15z M248.17,193.87l-1.35-6.54l7.02-0.06l1.35,6.52L248.17,193.87z M261.99,193.69l-1.34-6.49l6.92-0.06
					l1.34,6.47L261.99,193.69z M276.24,193.52l-1.34-6.45l6.83-0.06l1.34,6.43L276.24,193.52z M289.68,193.35l-1.34-6.41l6.74-0.06
					l1.33,6.39L289.68,193.35z M302.22,186.82l6.65-0.06l1.33,6.34l-6.65,0.08L302.22,186.82z"></path>
      <path fill="#dd5e57" d="M269.68,169.21l-16.24-7.65c-0.51-0.24-1.14,0.21-1.03,0.74l3.17,15.34c0.09,0.42,0.6,0.61,1.01,0.37
						l13.07-7.69C270.13,170.05,270.14,169.43,269.68,169.21z"></path>
      <polygon fill="#6359c9" points="155.22 126.28 113.65 125.5 113.2 123.21 154.77 124.03"></polygon>
      <polygon fill="#dd5e57" points="156.81 134.15 115.25 133.52 114.8 131.23 156.36 131.9"></polygon>
      <polygon fill="#6359c9" points="158.4 142.04 116.86 141.55 116.4 139.26 157.95 139.78"></polygon>
      <polygon fill="#dd5e57" points="108.71 125.4 104.15 125.32 103.69 123.02 108.25 123.11"></polygon>
      <polygon fill="#dd5e57" points="110.31 133.45 105.75 133.38 105.29 131.07 109.85 131.15"></polygon>
      <polygon fill="#dd5e57" points="111.92 141.5 107.35 141.44 106.89 139.14 111.46 139.19"></polygon>
      <polygon fill="#dd5e57" points="165.12 175.34 123.62 175.48 123.16 173.18 164.66 173.08"></polygon>
      <polygon fill="#bbbaf4" points="166.72 183.26 125.23 183.55 124.77 181.24 166.26 181"></polygon>
      <polygon fill="#6359c9" points="168.32 191.19 126.84 191.63 126.38 189.32 167.86 188.92"></polygon>
      <polygon fill="#dd5e57" points="118.69 175.5 114.13 175.51 113.67 173.2 118.23 173.19"></polygon>
      <polygon fill="#dd5e57" points="120.3 183.58 115.74 183.61 115.28 181.3 119.84 181.27"></polygon>
      <polygon fill="#dd5e57" points="121.91 191.68 117.35 191.73 116.89 189.41 121.45 189.36"></polygon>
      <g>
        <polygon fill="#dd5e57" points="145.01 149.47 118.39 149.25 117.93 146.95 144.55 147.2"></polygon>
        <polygon fill="#bbbaf4" points="146.61 157.42 119.99 157.29 119.54 154.99 146.15 155.15"></polygon>
        <polygon fill="#6359c9" points="148.21 165.38 121.6 165.35 121.14 163.04 147.75 163.1"></polygon>
      </g>
      <polygon fill="#6359c9" points="230.68 257.52 194.43 259.03 193.36 253.76 229.62 252.33"></polygon>
      <polygon fill="#dd5e57" points="264.14 265.62 228.98 267.24 227.91 262.04 263.09 260.5"></polygon>
      <polygon fill="#dd5e57" points="310.47 249.87 287.15 250.95 286.45 247.5 309.77 246.48"></polygon>
      <polygon fill="#31374c" points="282.41 259.49 262.85 260.29 261.8 255.2 281.37 254.44"></polygon>
      <polygon fill="#fff" points="336.03 257.79 317.32 258.61 316.73 255.78 335.44 254.99"></polygon>
      <g>
        <polygon fill="#6359c9" points="174.16 251.74 135.75 253.19 135.19 250.37 173.6 248.96"></polygon>
        <polygon fill="#fff" points="132.48 253.32 129.63 253.43 129.06 250.6 131.91 250.49"></polygon>
        <polygon fill="#fff" points="175.5 258.39 137.1 259.97 136.54 257.15 174.94 255.62"></polygon>
        <polygon fill="#fff" points="133.83 260.1 130.98 260.22 130.41 257.39 133.26 257.28"></polygon>
        <polygon fill="#31374c" points="178.19 271.73 139.8 273.54 139.24 270.71 177.63 268.95"></polygon>
        <polygon fill="#fff" points="136.53 273.69 133.68 273.83 133.12 270.99 135.97 270.86"></polygon>
        <g>
          <polygon fill="#fff" points="172.82 245.08 134.4 246.42 133.84 243.6 172.26 242.31"></polygon>
          <polygon fill="#fff" points="131.13 246.54 128.27 246.64 127.71 243.81 130.56 243.71"></polygon>
        </g>
        <g>
          <polygon fill="#bbbaf4" points="176.84 265.06 138.45 266.75 137.89 263.92 176.28 262.28"></polygon>
          <polygon fill="#fff" points="135.18 266.89 132.33 267.02 131.77 264.19 134.61 264.06"></polygon>
        </g>
      </g>
      <g>
        <path fill="#6359c9" d="M183.24 243.5c.22 1.08-.57 1.99-1.77 2.03-1.19.04-2.34-.8-2.56-1.88-.22-1.08.57-1.99 1.77-2.03C181.88 241.58 183.02 242.43 183.24 243.5zM184.68 250.63c.22 1.08-.57 1.99-1.76 2.04-1.19.05-2.34-.79-2.56-1.87-.22-1.08.57-1.99 1.77-2.04C183.32 248.71 184.46 249.55 184.68 250.63zM186.12 257.75c.22 1.08-.57 2-1.76 2.05-1.19.05-2.34-.79-2.56-1.87-.22-1.08.57-2 1.77-2.05C184.76 255.84 185.9 256.67 186.12 257.75zM187.56 264.89c.22 1.08-.57 2-1.76 2.05-1.19.05-2.34-.78-2.56-1.86-.22-1.08.57-2 1.77-2.05C186.2 262.97 187.34 263.81 187.56 264.89zM189 272.02c.22 1.08-.57 2.01-1.76 2.06-1.19.06-2.34-.77-2.56-1.86-.22-1.08.57-2.01 1.77-2.06C187.64 270.11 188.78 270.94 189 272.02z"></path>
      </g>
    </g>
    <g>
      <defs>
        <polygon id="SVGID_1_" points="474.94 439.13 98.17 440.79 88.54 213.89 465.31 212.22"></polygon>
      </defs>
      <clipPath id="SVGID_00000004539146349420160630000015762215652487090822_">
        <use xlink:href="#SVGID_1_" overflow="visible"></use>
      </clipPath>
      <g clip-path="url(#SVGID_00000004539146349420160630000015762215652487090822_)">
        <path fill="#edb4b4" d="M360.61,331.59l-32.14,3.86l-0.34-22.93c0,0-15.07,4.23-16.59-5.59c-1.53-9.82,0.05-14.59,0.05-14.59
						s-3.82,0.26-5.13-0.57c-0.95-0.63,3.59-10.88,6.22-18.51c0.95-2.71,1.65-5.1,1.77-6.6c0,0,6.72-10.64,18.37-9.33
						c3.64,0.4,7.76,1.99,12.32,5.44c19.08,14.47,12.55,38.78,11.58,45.98C355.76,315.94,360.61,331.59,360.61,331.59z"></path>
        <path fill="#edb4b4" d="M336.05,279.58c-0.93-7.09-5.09-4.68-13.91-4.95c-4.61-0.14-7.62-0.79-9.44-1.38
						c0.95-2.71,1.65-5.1,1.77-6.6c0,0,6.72-10.64,18.37-9.33c1.55,1.28,2.81,2.73,2.81,2.73S336.99,286.67,336.05,279.58z" opacity=".4"></path>
        <path fill="#f28481" d="M323.61,330.55l4.82-8.16l29.83-2.81c0,0,6.96,10.57,5.62,10.57
						C362.54,330.15,323.61,330.55,323.61,330.55z"></path>
        <path fill="#31374c" d="M334.18,286.4c0,0,2.64-12.75-3.18-15.14c-5.82-2.39-12.23-1.01-16.53-4.62
						c-6.19-5.2-5.39-13.38-3.71-17.13c2.29-5.12,7.65-8.09,13.03-8.83c4.46-0.61,8.87,0.59,12.97,2.27
						c1.52,0.62,2.94,1.52,4.43,2.15c1.58,0.67,3.33,1.06,4.94,1.63c8.5,2.99,18.34,8.65,18.86,18.72
						c0.55,10.67-0.55,33.36-8.66,45.32c0,0-4.79,2.42-7.39-5.52s2.73-24.57-3.35-27.68C339.5,274.47,344.27,292.57,334.18,286.4z"></path>
        <path fill="#dd5e57" d="M366.15,489.18c-36.86,4.76-60.49-8.02-73.85-19.6c-9.66-8.35-13.93-16.07-13.93-16.07
					c23.2-10.24,24.44-35.91,21.78-58.73c-1.86-16.12-5.66-30.81-5.01-37.6c1.96-20.32,33.53-29.42,33.53-29.42l30.34-2.32
					c40.31,10.69,38.52,41.74,39.6,78.84C399.68,441.37,366.15,489.18,366.15,489.18z"></path>
        <path fill="#edb4b4" d="M186.25,386.17c-0.36,0-17.66,0.8-22.39,2.76c-4.73,1.96-9,6.87-7.22,7.14c1.78,0.27,11.5,3.3,16.67,2.41
					c5.17-0.89,9.54,1.61,9.81,1.52s3.48-14,3.48-14L186.25,386.17z"></path>
        <path fill="#dd5e57" d="M318.87,332.12l-17.66,61.45c0,0-36.75,17.13-49.23,20.34c-3.97,1.02-11.81,0.64-20.83-0.49
					c-19.31-2.41-44.03-8.25-47.67-10.93c-3.23-2.36-2.96-8.08-1.23-12.58c0-0.01,0-0.01,0-0.01c1.15-2.96,2.95-5.39,4.79-5.96
					c4.64-1.42,52.44,2.5,54.94,2.14s24.97-18.2,37.82-31.4C292.66,341.49,318.87,332.12,318.87,332.12z"></path>
        <path fill="#eaa949" d="M315.71 406.28c-2.4 13.38-4.28 22.21-1.87 32.38 2.09 8.77-20.75 15.75-21.54 30.92-9.66-8.35-13.93-16.07-13.93-16.07 23.2-10.24 24.44-35.91 21.78-58.73.68-.78 1.05-1.21 1.05-1.21l12.63-6.29C313.84 387.28 318.12 392.9 315.71 406.28zM231.16 413.41c-19.31-2.41-44.03-8.25-47.67-10.93-3.23-2.36-2.96-8.08-1.23-12.58.52 1.53 4.02 10.95 13.72 13.28C206.29 405.68 220.3 401.79 231.16 413.41z"></path>
        <path fill="#6359c9" d="M421.3,367.29l-6.78-6.8c0,0,0,0,0,0c-0.91-0.9-2.16-1.47-3.57-1.47h-58.51c-2.38,0-4.43,1.66-4.94,3.98
					l-20.52,94.17h68.85l19.82-90.95c1.19,0.49,2.4,0.97,2.41,0.99C418.09,367.24,421.3,367.29,421.3,367.29z"></path>
        <path fill="#31374c" d="M402.48,463.81h-68.85l20.52-94.17c0.51-2.32,2.56-3.98,4.94-3.98h58.51c3.22,0,5.62,2.98,4.94,6.13
					L402.48,463.81z"></path>
      </g>
    </g>
  </g>
</svg>
